<?xml version="1.0" encoding="UTF-8" standalone="no"?>
<!-- Created with Inkscape (http://www.inkscape.org/) -->

<svg
   xmlns:dc="http://purl.org/dc/elements/1.1/"
   xmlns:cc="http://creativecommons.org/ns#"
   xmlns:rdf="http://www.w3.org/1999/02/22-rdf-syntax-ns#"
   xmlns:svg="http://www.w3.org/2000/svg"
   xmlns="http://www.w3.org/2000/svg"
   xmlns:sodipodi="http://sodipodi.sourceforge.net/DTD/sodipodi-0.dtd"
   xmlns:inkscape="http://www.inkscape.org/namespaces/inkscape"
   version="1.1"
   id="svg2"
   xml:space="preserve"
   width="350.20267"
   height="274.01199"
   viewBox="0 0 350.20267 274.01199"
   sodipodi:docname="nodos.svg"
   inkscape:version="0.92.5 (2060ec1f9f, 2020-04-08)"><metadata
     id="metadata8"><rdf:RDF><cc:Work
         rdf:about=""><dc:format>image/svg+xml</dc:format><dc:type
           rdf:resource="http://purl.org/dc/dcmitype/StillImage" /><dc:title></dc:title></cc:Work></rdf:RDF></metadata><defs
     id="defs6" /><sodipodi:namedview
     pagecolor="#ffffff"
     bordercolor="#666666"
     borderopacity="1"
     objecttolerance="10"
     gridtolerance="10"
     guidetolerance="10"
     inkscape:pageopacity="0"
     inkscape:pageshadow="2"
     inkscape:window-width="1314"
     inkscape:window-height="704"
     id="namedview4"
     showgrid="false"
     inkscape:zoom="3.4451047"
     inkscape:cx="172.12495"
     inkscape:cy="50.092473"
     inkscape:window-x="52"
     inkscape:window-y="27"
     inkscape:window-maximized="1"
     inkscape:current-layer="g12" /><g
     id="g10"
     inkscape:groupmode="layer"
     inkscape:label="Articulo_Manipuladores_paralelos (6)"
     transform="matrix(1.3333333,0,0,-1.3333333,0,274.012)"><g
       id="g12"
       transform="translate(21.333,108.591)"><g
         id="g18"><path
           d="M 21.13379,0 C 21.13379,5.50235 11.67201,9.96277 0,9.96277 -11.67201,9.96277 -21.13379,5.50235 -21.13379,0 c 0,-5.50235 9.46178,-9.96277 21.13379,-9.96277 11.67201,0 21.13379,4.46042 21.13379,9.96277 z"
           style="fill:none;stroke:#000000;stroke-width:0.3985;stroke-linecap:butt;stroke-linejoin:miter;stroke-miterlimit:10;stroke-dasharray:none;stroke-opacity:1"
           id="path20"
           inkscape:connector-curvature="0" /><g
           id="g22"
           transform="translate(-11.623,-3.46)"><g
             id="g24"><g
               id="g26"
               transform="translate(-9.71,-105.131)"><g
                 aria-label="Nodo"
                 transform="matrix(1,0,0,-1,9.71,105.131)"
                 style="font-variant:normal;font-weight:normal;font-size:9.96259975px;font-family:CMR10;-inkscape-font-specification:CMR10;writing-mode:lr-tb;fill:#000000;fill-opacity:1;fill-rule:nonzero;stroke:none"
                 id="text30"><path
                   d="m 0.30646669,0 v -0.35024765 q 1.02642021,0 1.02642021,-0.58861063 V -6.3968841 Q 1.006962,-6.4552587 0.30646669,-6.4552587 V -6.8055064 H 2.2133706 q 0.048645,0 0.068104,0.038916 l 3.5267992,5.1904756 v -4.2905337 q 0,-0.5886106 -1.0264202,-0.5886106 v -0.3502477 h 2.3690362 v 0.3502477 q -1.0215557,0 -1.0215557,0.5886106 v 5.77908619 q 0,0.0291873 -0.038916,0.05837461 Q 6.051501,0 6.0271783,0 H 5.9055645 Q 5.856919,0 5.8374608,-0.03891641 L 1.6539472,-6.1974375 v 5.25857922 q 0,0.58861063 1.0264202,0.58861063 V 0 Z"
                   id="path254"
                   inkscape:connector-curvature="0" /><path
                   d="m 9.9626,0.11188467 q -0.5983397,0 -1.1091176,-0.30160215 Q 8.3427046,-0.49618417 8.045967,-1.006962 7.7492294,-1.5177398 7.7492294,-2.1209441 q 0,-0.4572678 0.1605302,-0.8804837 0.1653947,-0.4232159 0.4669969,-0.7540053 0.3064667,-0.335654 0.7102244,-0.5205069 0.4037577,-0.1897175 0.8756191,-0.1897175 0.612933,0 1.113982,0.3259249 0.505913,0.3210603 0.797786,0.86589 0.291873,0.5399651 0.291873,1.1528985 0,0.5983397 -0.296737,1.1139821 -0.296738,0.51077783 -0.807516,0.81724452 Q 10.556075,0.11188467 9.9626,0.11188467 Z m 0,-0.29187304 q 0.797786,0 1.065337,-0.57888153 0.26755,-0.5788815 0.26755,-1.4739589 0,-0.5010487 -0.05351,-0.8269736 -0.05351,-0.3307894 -0.233499,-0.5983397 -0.111884,-0.1653947 -0.287008,-0.2870085 -0.170259,-0.1264783 -0.364841,-0.1897175 -0.189718,-0.068104 -0.394029,-0.068104 -0.3113312,0 -0.5934752,0.141072 -0.2772794,0.141072 -0.4621323,0.4037577 -0.1848529,0.2821439 -0.238363,0.6226625 -0.048645,0.335654 -0.048645,0.8026508 0,0.5594234 0.097291,1.006962 0.097291,0.44267414 0.3891641,0.74427628 0.2967376,0.30160215 0.8561604,0.30160245 z"
                   id="path256"
                   inkscape:connector-curvature="0" /><path
                   d="m 15.164478,0.11188467 q -0.588611,0 -1.075066,-0.3161958 -0.486455,-0.32106034 -0.75887,-0.84156727 -0.26755,-0.5205069 -0.26755,-1.104253 0,-0.6032043 0.291873,-1.1188466 0.296738,-0.520507 0.802651,-0.8269737 0.505913,-0.3064666 1.113982,-0.3064666 0.364841,0 0.690766,0.1556656 0.325925,0.150801 0.564288,0.4232159 v -2.0722986 q 0,-0.2675503 -0.0827,-0.3842995 -0.07783,-0.1216138 -0.228634,-0.1459365 -0.145937,-0.029187 -0.462133,-0.029187 v -0.3502477 l 1.473959,-0.1070201 v 6.00772008 q 0,0.26268573 0.07783,0.3842995 0.0827,0.11674922 0.228634,0.14593652 0.150801,0.0243228 0.466997,0.0243228 V 0 l -1.503146,0.11188467 v -0.62752704 q -0.257821,0.29673759 -0.612934,0.46213231 -0.355112,0.16539473 -0.719953,0.16539473 z m -1.016691,-0.97777469 q 0.170259,0.3259249 0.452403,0.52050692 0.287008,0.19458203 0.622662,0.19458203 0.413487,0 0.75887,-0.23836298 0.345383,-0.23836299 0.515643,-0.61779795 v -2.3884944 q -0.116749,-0.2189047 -0.296738,-0.389164 -0.175124,-0.1751238 -0.398893,-0.2675503 -0.218905,-0.092427 -0.466997,-0.092427 -0.520507,0 -0.836703,0.2967376 -0.316195,0.2918731 -0.442674,0.7491408 -0.126478,0.4572678 -0.126478,0.9583165 0,0.3988932 0.03892,0.6956308 0.04378,0.2967375 0.179989,0.57888148 z"
                   id="path258"
                   inkscape:connector-curvature="0" /><path
                   d="m 20.758074,0.11188467 q -0.59834,0 -1.109118,-0.30160215 -0.510778,-0.30646669 -0.807515,-0.81724452 -0.296738,-0.5107778 -0.296738,-1.1139821 0,-0.4572678 0.16053,-0.8804837 0.165395,-0.4232159 0.466997,-0.7540053 0.306467,-0.335654 0.710224,-0.5205069 0.403758,-0.1897175 0.87562,-0.1897175 0.612933,0 1.113982,0.3259249 0.505913,0.3210603 0.797786,0.86589 0.291873,0.5399651 0.291873,1.1528985 0,0.5983397 -0.296738,1.1139821 -0.296737,0.51077783 -0.807515,0.81724452 -0.505913,0.30160215 -1.099388,0.30160215 z m 0,-0.29187304 q 0.797786,0 1.065336,-0.57888153 0.26755,-0.5788815 0.26755,-1.4739589 0,-0.5010487 -0.05351,-0.8269736 -0.05351,-0.3307894 -0.233498,-0.5983397 -0.111885,-0.1653947 -0.287009,-0.2870085 -0.170259,-0.1264783 -0.364841,-0.1897175 -0.189717,-0.068104 -0.394028,-0.068104 -0.311332,0 -0.593476,0.141072 -0.277279,0.141072 -0.462132,0.4037577 -0.184853,0.2821439 -0.238363,0.6226625 -0.04865,0.335654 -0.04865,0.8026508 0,0.5594234 0.09729,1.006962 0.09729,0.44267414 0.389164,0.74427628 0.296737,0.30160215 0.856161,0.30160215 z"
                   id="path260"
                   inkscape:connector-curvature="0" /></g><g
                 id="g32"
                 transform="translate(9.71,105.131)" /></g></g><g
             id="g34"
             transform="translate(11.623,3.46)" /></g></g><g
         id="g36"><g
           id="g38"
           transform="translate(-15.276,42.028)"><g
             id="g40"><g
               id="g42"
               transform="translate(-6.057,-150.619)"><g
                 aria-label="roscore"
                 transform="matrix(1,0,0,-1,6.057,150.619)"
                 style="font-variant:normal;font-weight:normal;font-size:9.96259975px;font-family:CMR10;-inkscape-font-specification:CMR10;writing-mode:lr-tb;fill:#000000;fill-opacity:1;fill-rule:nonzero;stroke:none"
                 id="text46"><path
                   d="m 0.25782119,0 v -0.35024765 q 0.34051854,0 0.55942332,-0.05351 0.21890479,-0.0535101 0.21890479,-0.26268574 V -3.3857273 q 0,-0.2675502 -0.0826974,-0.3842995 Q 0.8756191,-3.8916405 0.72481802,-3.9159633 0.57401695,-3.9451503 0.25782116,-3.9451503 V -4.2953982 L 1.6831345,-4.4024183 v 0.9729101 q 0.1605302,-0.432945 0.4572678,-0.7004953 0.2967376,-0.2724148 0.7199535,-0.2724148 0.2967376,0 0.530236,0.1751238 0.2334984,0.1751238 0.2334984,0.4621323 0,0.1799884 -0.1313428,0.3161958 -0.1264783,0.1313428 -0.3161958,0.1313428 -0.1848529,0 -0.3161958,-0.1313428 -0.1313429,-0.1313429 -0.1313429,-0.3161958 0,-0.2675503 0.1897175,-0.379435 h -0.058375 q -0.4037577,0 -0.6615789,0.2918731 -0.2529566,0.291873 -0.3599768,0.724818 Q 1.73178,-2.6949611 1.73178,-2.3009325 v 1.63448906 q 0,0.31619579 0.9680456,0.31619579 V 0 Z"
                   id="path263"
                   inkscape:connector-curvature="0" /><path
                   d="m 6.3930004,0.11188467 q -0.5983398,0 -1.1091176,-0.30160215 Q 4.773105,-0.49618417 4.4763674,-1.006962 4.1796298,-1.5177398 4.1796298,-2.1209441 q 0,-0.4572678 0.1605302,-0.8804837 0.1653947,-0.4232159 0.4669968,-0.7540053 0.3064667,-0.335654 0.7102244,-0.5205069 0.4037578,-0.1897175 0.8756192,-0.1897175 0.6129333,0 1.1139821,0.3259249 0.5059132,0.3210603 0.7977863,0.86589 0.291873,0.5399651 0.291873,1.1528985 0,0.5983397 -0.2967376,1.1139821 -0.2967376,0.51077783 -0.8075154,0.81724452 -0.5059133,0.30160215 -1.0993884,0.30160215 z m 0,-0.29187304 q 0.7977863,0 1.0653366,-0.57888153 0.2675502,-0.5788815 0.2675502,-1.4739589 0,-0.5010487 -0.05351,-0.8269736 Q 7.6188671,-3.3905918 7.4388788,-3.6581421 7.3269941,-3.8235368 7.1518703,-3.9451506 6.981611,-4.0716289 6.787029,-4.1348681 q -0.1897175,-0.068104 -0.3940286,-0.068104 -0.3113313,0 -0.5934752,0.141072 -0.2772794,0.141072 -0.4621323,0.4037577 -0.184853,0.2821439 -0.238363,0.6226625 -0.048645,0.335654 -0.048645,0.8026508 0,0.5594234 0.097291,1.006962 0.097291,0.44267414 0.389164,0.74427628 0.2967376,0.30160215 0.8561605,0.30160245 z"
                   id="path265"
                   inkscape:connector-curvature="0" /><path
                   d="m 9.2144402,0.0291873 v -1.6247599 q 0,-0.077833 0.087562,-0.077833 H 9.423616 q 0.058375,0 0.077833,0.077833 0.2772794,1.44477153 1.342616,1.44477153 0.471861,0 0.788057,-0.21404023 0.32106,-0.21404023 0.32106,-0.6615789 0,-0.3210603 -0.248092,-0.5448297 -0.248092,-0.2286338 -0.58861,-0.3113312 L 10.450036,-2.013924 Q 10.114382,-2.0868922 9.8371027,-2.2376933 9.5646879,-2.3884944 9.389564,-2.6365865 9.2144402,-2.8895431 9.2144402,-3.2203325 q 0,-0.4378096 0.2286339,-0.715089 0.2334984,-0.2821439 0.6032039,-0.4037577 0.369706,-0.1264783 0.797787,-0.1264783 0.510778,0 0.890212,0.2724148 l 0.287009,-0.2480921 q 0,-0.024323 0.04865,-0.024323 h 0.07297 q 0.02919,0 0.05351,0.029187 0.02432,0.024323 0.02432,0.05351 v 1.3036995 q 0,0.092427 -0.07783,0.092427 h -0.121614 q -0.08756,0 -0.08756,-0.092427 0,-0.5205069 -0.291873,-0.8367027 -0.287008,-0.3161958 -0.807515,-0.3161958 -0.447539,0 -0.778329,0.1653947 -0.3259244,0.1653948 -0.3259244,0.5691525 0,0.2772794 0.2334984,0.4572677 0.238363,0.1751239 0.554559,0.2529567 l 0.676172,0.1264783 q 0.340519,0.077833 0.632392,0.2626857 0.296738,0.1848529 0.466997,0.4669969 0.175124,0.2821439 0.175124,0.6372561 0,0.35997677 -0.126479,0.62752706 -0.121613,0.26268574 -0.345383,0.43780956 -0.218905,0.17512382 -0.520507,0.25782118 -0.301602,0.08269737 -0.632391,0.08269737 -0.622663,0 -1.0653369,-0.41835136 l -0.3648413,0.3940286 q 0,0.02432276 -0.05351,0.02432276 h -0.058375 q -0.087562,0 -0.087562,-0.08269737 z"
                   id="path267"
                   inkscape:connector-curvature="0" /><path
                   d="m 15.29382,0.11188467 q -0.603204,0 -1.094523,-0.31133125 -0.49132,-0.31619579 -0.773464,-0.83670272 -0.282144,-0.5253715 -0.282144,-1.1139821 0,-0.5886106 0.277279,-1.1285757 0.282144,-0.5399652 0.773464,-0.8610255 0.496184,-0.3259249 1.099388,-0.3259249 0.583747,0 1.060472,0.2286339 0.481591,0.2286339 0.481591,0.7491408 0,0.194582 -0.141072,0.3405185 -0.136207,0.141072 -0.335654,0.141072 -0.199447,0 -0.340519,-0.141072 -0.136207,-0.1459365 -0.136207,-0.3405185 0,-0.1751238 0.111885,-0.3016022 0.111884,-0.1313428 0.277279,-0.1653947 -0.345383,-0.2189048 -0.968045,-0.2189048 -0.476726,0 -0.768599,0.3161958 -0.291874,0.3161958 -0.408623,0.7831927 -0.116749,0.4669968 -0.116749,0.9242646 0,0.4815905 0.141072,0.9339937 0.145937,0.4475387 0.462132,0.74427629 0.321061,0.29187304 0.802651,0.29187304 0.471862,0 0.802651,-0.28700849 0.330789,-0.29187304 0.452403,-0.75886994 0,-0.058375 0.07783,-0.058375 h 0.121614 q 0.02919,0 0.05351,0.029187 0.02432,0.024323 0.02432,0.058375 v 0.029187 q -0.150801,0.58861067 -0.59834,0.93399377 -0.447539,0.3453831 -1.055608,0.3453831 z"
                   id="path269"
                   inkscape:connector-curvature="0" /><path
                   d="m 19.73093,0.11188467 q -0.59834,0 -1.109117,-0.30160215 -0.510778,-0.30646669 -0.807516,-0.81724452 -0.296737,-0.5107778 -0.296737,-1.1139821 0,-0.4572678 0.16053,-0.8804837 0.165394,-0.4232159 0.466997,-0.7540053 0.306466,-0.335654 0.710224,-0.5205069 0.403758,-0.1897175 0.875619,-0.1897175 0.612933,0 1.113982,0.3259249 0.505913,0.3210603 0.797786,0.86589 0.291874,0.5399651 0.291874,1.1528985 0,0.5983397 -0.296738,1.1139821 -0.296738,0.51077783 -0.807515,0.81724452 -0.505914,0.30160215 -1.099389,0.30160215 z m 0,-0.29187304 q 0.797786,0 1.065337,-0.57888153 0.26755,-0.5788815 0.26755,-1.4739589 0,-0.5010487 -0.05351,-0.8269736 -0.05351,-0.3307894 -0.233499,-0.5983397 -0.111884,-0.1653947 -0.287008,-0.2870085 -0.170259,-0.1264783 -0.364841,-0.1897175 -0.189718,-0.068104 -0.394029,-0.068104 -0.311331,0 -0.593475,0.141072 -0.277279,0.141072 -0.462132,0.4037577 -0.184853,0.2821439 -0.238363,0.6226625 -0.04865,0.335654 -0.04865,0.8026508 0,0.5594234 0.09729,1.006962 0.09729,0.44267414 0.389164,0.74427628 0.296738,0.30160215 0.856161,0.30160215 z"
                   id="path271"
                   inkscape:connector-curvature="0" /><path
                   d="m 22.4794,0 v -0.35024765 q 0.340518,0 0.559423,-0.05351 0.218905,-0.0535101 0.218905,-0.26268574 V -3.3857273 q 0,-0.2675502 -0.0827,-0.3842995 -0.07783,-0.1216137 -0.228634,-0.1459365 -0.150801,-0.029187 -0.466997,-0.029187 V -4.2953979 L 23.90471,-4.402418 v 0.9729101 q 0.16053,-0.432945 0.457268,-0.7004953 0.296737,-0.2724148 0.719953,-0.2724148 0.296738,0 0.530236,0.1751238 0.233499,0.1751238 0.233499,0.4621323 0,0.1799884 -0.131343,0.3161958 -0.126478,0.1313428 -0.316196,0.1313428 -0.184853,0 -0.316196,-0.1313428 -0.131342,-0.1313429 -0.131342,-0.3161958 0,-0.2675503 0.189717,-0.379435 h -0.05837 q -0.403757,0 -0.661579,0.2918731 -0.252956,0.291873 -0.359976,0.724818 -0.10702,0.432945 -0.10702,0.8269736 v 1.63448906 q 0,0.31619579 0.968045,0.31619579 V 0 Z"
                   id="path273"
                   inkscape:connector-curvature="0" /><path
                   d="m 28.604851,0.11188467 q -0.608069,0 -1.118847,-0.3161958 -0.505913,-0.32106034 -0.797786,-0.85129637 -0.287009,-0.5351006 -0.287009,-1.1285757 0,-0.5837461 0.262686,-1.1091176 0.26755,-0.5253715 0.739412,-0.8464318 0.476726,-0.3259249 1.060472,-0.3259249 0.457268,0 0.792922,0.1556656 0.340518,0.1508011 0.559423,0.4232159 0.218905,0.2724149 0.330789,0.6421207 0.111885,0.3697059 0.111885,0.81238 0,0.1313428 -0.102156,0.1313428 h -2.884678 v 0.1070202 q 0,0.8269736 0.330789,1.42044874 0.335654,0.59347519 1.08966,0.59347519 0.306466,0 0.564288,-0.13620742 0.262685,-0.13620742 0.452403,-0.37943495 0.194582,-0.24322754 0.262686,-0.52050696 0.0097,-0.034052 0.03405,-0.058375 0.02919,-0.029187 0.06324,-0.029187 h 0.08756 q 0.102156,0 0.102156,0.1264783 -0.141072,0.56428792 -0.608069,0.92912922 -0.466997,0.35997675 -1.045878,0.35997675 z M 27.281693,-2.5490245 h 2.271745 q 0,-0.3745704 -0.10702,-0.7588699 -0.102155,-0.3842996 -0.345383,-0.6372562 -0.243228,-0.2578212 -0.637256,-0.2578212 -0.564288,0 -0.875619,0.5302361 -0.306467,0.5253714 -0.306467,1.1237112 z"
                   id="path275"
                   inkscape:connector-curvature="0" /></g><g
                 id="g48"
                 transform="translate(6.057,150.619)" /></g></g><g
             id="g50"
             transform="translate(15.276,-42.028)" /></g></g><g
         id="g52"><path
           d="m 78.22592,-9.96277 h 39.85112 V 9.96278 H 78.22592 Z"
           style="fill:none;stroke:#000000;stroke-width:0.3985;stroke-linecap:butt;stroke-linejoin:miter;stroke-miterlimit:10;stroke-dasharray:none;stroke-opacity:1"
           id="path54"
           inkscape:connector-curvature="0" /><g
           id="g56"
           transform="translate(83.206,-2.491)"><path
             style="font-variant:normal;font-weight:normal;font-size:9.96259975px;font-family:CMR10;-inkscape-font-specification:CMR10;writing-mode:lr-tb;fill:#000000;fill-opacity:1;fill-rule:nonzero;stroke:none"
             inkscape:connector-curvature="0"
             id="path278"
             d="m 1.5291972,0.38484327 v 0.3502477 q 0.5010487,0 0.9729102,0.05351 0.4718614,0.058375 0.4718614,0.26268583 v 5.4726194 q 0,0.2140403 -0.1216138,0.2626858 -0.1167492,0.05351 -0.3842995,0.05351 H 2.0497041 q -0.822109,0 -1.1674921,-0.3599767 Q 0.70222362,6.3001369 0.62439081,5.9012437 0.54655801,5.5072151 0.49304794,4.9088754 H 0.20603945 L 0.39575692,7.1903497 H 6.4813098 L 6.6710273,4.9088754 H 6.3791542 Q 6.3207796,5.5509961 6.2478114,5.9255665 6.1797077,6.3050015 5.9948547,6.4801253 5.6446071,6.840102 4.8273626,6.840102 H 4.4090112 q -0.1799884,0 -0.2821439,-0.014594 Q 4.0295763,6.810914 3.9663371,6.737946 3.9030981,6.669842 3.9030981,6.5239057 V 1.0512862 q 0,-0.20431113 0.4718614,-0.26268573 0.4718614,-0.05351 0.9680455,-0.05351 v -0.3502472 z" /><path
             style="font-variant:normal;font-weight:normal;font-size:9.96259975px;font-family:CMR10;-inkscape-font-specification:CMR10;writing-mode:lr-tb;fill:#000000;fill-opacity:1;fill-rule:nonzero;stroke:none"
             inkscape:connector-curvature="0"
             id="path282"
             d="m 9.5317023,0.2729586 q -0.5983397,0 -1.1091175,0.30160217 -0.5107779,0.3064667 -0.8075154,0.81724453 -0.2967376,0.5107778 -0.2967376,1.1139821 0,0.4572678 0.1605301,0.8804837 0.1653948,0.4232159 0.4669969,0.7540053 0.3064667,0.335654 0.7102244,0.5205069 0.4037577,0.1897175 0.8756191,0.1897175 0.6129337,0 1.1139827,-0.3259249 0.505913,-0.3210603 0.797786,-0.86589 0.291873,-0.5399651 0.291873,-1.1528985 0,-0.5983397 -0.296738,-1.1139821 Q 11.141869,0.88102747 10.631091,0.57456077 10.125178,0.2729586 9.5317023,0.2729586 Z m 0,0.29187307 q 0.7977867,0 1.0653367,0.57888153 0.267551,0.5788815 0.267551,1.4739589 0,0.5010487 -0.05351,0.8269736 -0.05351,0.3307894 -0.233498,0.5983397 -0.111885,0.1653947 -0.287008,0.2870085 -0.17026,0.1264783 -0.3648423,0.1897175 -0.1897173,0.068104 -0.3940284,0.068104 -0.3113312,0 -0.5934752,-0.141072 Q 8.6609488,4.3056714 8.4760958,4.0429857 8.2912429,3.7608418 8.2377328,3.4203232 8.1890878,3.0846692 8.1890878,2.6176724 q 0,-0.5594234 0.097291,-1.006962 0.097291,-0.4426741 0.389164,-0.74427633 0.2967376,-0.3016021 0.8561609,-0.3016021 z" /><path
             style="font-variant:normal;font-weight:normal;font-size:9.96259975px;font-family:CMR10;-inkscape-font-specification:CMR10;writing-mode:lr-tb;fill:#000000;fill-opacity:1;fill-rule:nonzero;stroke:none"
             inkscape:connector-curvature="0"
             id="path284"
             d="m 12.280174,-1.5463833 v 0.3453831 q 0.340518,0 0.559423,0.058375 0.218905,0.058375 0.218905,0.26268567 V 3.921372 q 0,0.2724149 -0.194582,0.3405186 -0.194582,0.068104 -0.583746,0.068104 v 0.3502476 l 1.473959,0.1070201 V 4.1694644 q 0.272414,0.3016022 0.632391,0.4572678 0.364841,0.1605301 0.773464,0.1605301 0.58861,0 1.060472,-0.3210603 0.471861,-0.3161958 0.734547,-0.8367027 0.26755,-0.5156424 0.26755,-1.0945239 0,-0.6032043 -0.296737,-1.1237112 Q 16.633947,0.89075727 16.123169,0.57942597 15.617255,0.2729593 15.009187,0.2729593 q -0.724818,0 -1.225867,0.58861067 v -1.7415099 q 0,-0.20431107 0.218905,-0.26268567 0.223769,-0.058375 0.559423,-0.058375 v -0.3453831 z m 1.503146,2.8992722 q 0.175124,-0.35511223 0.486455,-0.58861063 0.311331,-0.2286339 0.681037,-0.2286339 0.345383,0 0.608069,0.1848529 0.26755,0.1848529 0.447539,0.49618423 0.179988,0.3113312 0.262685,0.6518498 0.08756,0.345383 0.08756,0.6664434 0,0.3988931 -0.145936,0.8610255 -0.141072,0.4669968 -0.43781,0.7831926 -0.291873,0.3210604 -0.710224,0.3210604 -0.403758,0 -0.744277,-0.2091757 -0.335654,-0.2043111 -0.5351,-0.5594233 z" /><path
             style="font-variant:normal;font-weight:normal;font-size:9.96259975px;font-family:CMR10;-inkscape-font-specification:CMR10;writing-mode:lr-tb;fill:#000000;fill-opacity:1;fill-rule:nonzero;stroke:none"
             inkscape:connector-curvature="0"
             id="path286"
             d="m 17.864039,0.38484327 v 0.3502477 q 0.340519,0 0.559424,0.05351 0.218905,0.05351 0.218905,0.26268583 v 2.7192839 q 0,0.3842995 -0.150802,0.4718614 -0.145936,0.087562 -0.583746,0.087562 v 0.3502475 l 1.435043,0.1070201 v -3.735975 q 0,-0.20917563 0.189717,-0.26268573 0.189718,-0.05351 0.505914,-0.05351 v -0.3502477 z m 0.423216,6.11474023 q 0,0.2189048 0.165395,0.3842995 0.165395,0.1653947 0.379435,0.1653947 0.141072,0 0.272415,-0.072968 0.131343,-0.072968 0.204311,-0.2043111 0.07297,-0.1313428 0.07297,-0.2724148 0,-0.2140402 -0.165395,-0.379435 -0.165394,-0.1653947 -0.384299,-0.1653947 -0.21404,0 -0.379435,0.1653947 -0.165395,0.1653948 -0.165395,0.379435 z" /><path
             style="font-variant:normal;font-weight:normal;font-size:9.96259975px;font-family:CMR10;-inkscape-font-specification:CMR10;writing-mode:lr-tb;fill:#000000;fill-opacity:1;fill-rule:nonzero;stroke:none"
             inkscape:connector-curvature="0"
             id="path288"
             d="m 22.806104,0.2729586 q -0.603204,0 -1.094524,0.31133127 -0.491319,0.3161958 -0.773463,0.83670273 -0.282144,0.5253715 -0.282144,1.1139821 0,0.5886106 0.277279,1.1285757 0.282144,0.5399652 0.773464,0.8610255 0.496184,0.3259249 1.099388,0.3259249 0.583746,0 1.060472,-0.2286339 0.481591,-0.2286339 0.481591,-0.7491408 0,-0.194582 -0.141072,-0.3405185 -0.136208,-0.141072 -0.335654,-0.141072 -0.199447,0 -0.340519,0.141072 -0.136207,0.1459365 -0.136207,0.3405185 0,0.1751238 0.111884,0.3016022 0.111885,0.1313428 0.27728,0.1653947 -0.345383,0.2189048 -0.968046,0.2189048 -0.476726,0 -0.768599,-0.3161958 -0.291873,-0.3161958 -0.408622,-0.7831927 -0.116749,-0.4669968 -0.116749,-0.9242646 0,-0.4815905 0.141072,-0.9339937 0.145936,-0.4475387 0.462132,-0.74427633 0.32106,-0.291873 0.802651,-0.291873 0.471861,0 0.802651,0.2870085 0.330789,0.29187303 0.452403,0.75886993 0,0.058375 0.07783,0.058375 h 0.121614 q 0.02919,0 0.05351,-0.029187 0.02432,-0.024323 0.02432,-0.058375 V 1.5523361 Q 24.309245,0.96372537 23.861707,0.61834227 23.414168,0.2729592 22.806099,0.2729592 Z" /><path
             style="font-variant:normal;font-weight:normal;font-size:9.96259975px;font-family:CMR10;-inkscape-font-specification:CMR10;writing-mode:lr-tb;fill:#000000;fill-opacity:1;fill-rule:nonzero;stroke:none"
             inkscape:connector-curvature="0"
             id="path290"
             d="m 27.243213,0.2729586 q -0.59834,0 -1.109118,0.30160217 -0.510778,0.3064667 -0.807515,0.81724453 -0.296738,0.5107778 -0.296738,1.1139821 0,0.4572678 0.16053,0.8804837 0.165395,0.4232159 0.466997,0.7540053 0.306467,0.335654 0.710225,0.5205069 0.403757,0.1897175 0.875619,0.1897175 0.612933,0 1.113982,-0.3259249 0.505913,-0.3210603 0.797786,-0.86589 0.291873,-0.5399651 0.291873,-1.1528985 0,-0.5983397 -0.296737,-1.1139821 Q 28.853379,0.88102747 28.342601,0.57456077 27.836688,0.2729586 27.243213,0.2729586 Z m 0,0.29187307 q 0.797786,0 1.065336,0.57888153 0.267551,0.5788815 0.267551,1.4739589 0,0.5010487 -0.05351,0.8269736 -0.05351,0.3307894 -0.233499,0.5983397 -0.111884,0.1653947 -0.287008,0.2870085 -0.17026,0.1264783 -0.364842,0.1897175 -0.189717,0.068104 -0.394028,0.068104 -0.311331,0 -0.593475,-0.141072 -0.27728,-0.141072 -0.462133,-0.4037577 -0.184853,-0.2821439 -0.238363,-0.6226625 -0.04865,-0.335654 -0.04865,-0.8026508 0,-0.5594234 0.09729,-1.006962 0.09729,-0.4426741 0.389164,-0.74427633 0.296737,-0.3016021 0.856161,-0.3016021 z" /><g
             id="g68"
             transform="translate(-83.206,2.491)" /></g></g><g
         id="g70"><g
           id="g72"
           transform="translate(66.284,27.855)"><g
             id="g74"><g
               id="g76"
               transform="translate(31.866,2.501)"><g
                 id="g78"><g
                   id="g80"><g
                     id="g82"><g
                       id="g84"><path
                         d="m 5.9845,57.22925 c -1.1016,1.90799 -3.78145,3.455 -5.98459,3.45502 -2.20317,-2e-5 -4.88303,-1.54703 -5.98462,-3.45502 -1.78229,1.29478 -4.85935,1.61809 -6.87183,0.722 -2.01249,-0.89606 -3.83191,-3.39926 -4.06219,-5.59015 -2.15502,0.45807 -5.09764,-0.49834 -6.57189,-2.13558 -1.47415,-1.63729 -2.11788,-4.66391 -1.43702,-6.75921 -2.15489,-0.45807 -4.45415,-2.52879 -5.13489,-4.62398 -0.68073,-2.09523 -0.03784,-5.12221 1.43631,-6.75937 -1.78229,-1.2949 -3.04083,-4.1215 -2.81056,-6.31246 0.23021,-2.19097 2.0489,-4.69474 4.06143,-5.59087 -1.10149,-1.90796 -1.10112,-5.00222 4.5e-4,-6.91011 1.10168,-1.90787 3.78153,-3.45528 5.98461,-3.45514 -0.23025,-2.19033 1.02812,-5.01616 2.80988,-6.31075 1.78181,-1.29454 4.86085,-1.62028 6.87284,-0.72446 0.68079,-2.09507 2.98027,-4.16529 5.13504,-4.62327 2.15481,-0.45804 5.09835,0.49763 6.57244,2.13472 1.47407,-1.63709 4.41669,-2.59311 6.57149,-2.13507 2.15477,0.45798 4.45517,2.52855 5.13595,4.62362 2.012,-0.89582 5.08837,-0.57223 6.87018,0.72231 1.78174,1.29459 3.0428,4.12257 2.81255,6.3129 2.20307,-1.4e-4 4.88273,1.54712 5.9844,3.45498 1.10158,1.9079 1.10214,5.00231 6.6e-4,6.91027 2.01252,0.89613 3.83096,3.3995 4.06117,5.59047 0.23027,2.19097 -1.02801,5.01796 -2.81031,6.31286 1.47416,1.63716 2.11742,4.66379 1.4367,6.75902 -0.68074,2.09518 -2.98038,4.16626 -5.13527,4.62433 0.68086,2.0953 0.03731,5.12184 -1.43684,6.75914 -1.47425,1.63724 -4.41706,2.59372 -6.57207,2.13565 -0.23029,2.19089 -2.04897,4.69394 -4.06146,5.59 -2.01249,0.89608 -5.09028,0.57293 -6.87256,-0.72185 z"
                         style="fill:#ccccff;fill-opacity:1;fill-rule:nonzero;stroke:#000000;stroke-width:0.3985;stroke-linecap:butt;stroke-linejoin:miter;stroke-miterlimit:10;stroke-dasharray:none;stroke-opacity:1"
                         id="path86"
                         inkscape:connector-curvature="0" /></g><g
                       id="g88"
                       transform="translate(-17.033,26.584)"><g
                         id="g90"><g
                           id="g92"
                           transform="translate(-102.45,-165.531)"><g
                             aria-label="T´opico"
                             transform="matrix(1,0,0,-1,102.45,165.531)"
                             style="font-variant:normal;font-weight:normal;font-size:9.96259975px;font-family:CMBX10;-inkscape-font-specification:CMBX10;writing-mode:lr-tb;fill:#000000;fill-opacity:1;fill-rule:nonzero;stroke:none"
                             id="text96"><path
                               d="m -0.0291873,-7.2627741 h 6.1439275 v 0.8269736 H 3.5365283 V 0 H 2.5490245 v -6.4358005 h -2.5782118 z"
                               id="path293"
                               inkscape:connector-curvature="0" /><path
                               d="m 11.136902,-7.968134 h 0.968046 l -1.585844,1.8290711 H 9.7748282 Z"
                               id="path295"
                               inkscape:connector-curvature="0" /><path
                               d="m 11.020153,-4.8207697 q -0.719953,0 -1.1383047,0.5642879 -0.4183513,0.5594233 -0.4183513,1.537198 0,0.9777747 0.4134868,1.5420625 0.4183512,0.55942337 1.1431692,0.55942337 0.715089,0 1.13344,-0.56428787 0.418352,-0.5642879 0.418352,-1.537198 0,-0.9680456 -0.418352,-1.5323335 -0.418351,-0.5691524 -1.13344,-0.5691524 z m 0,-0.7588699 q 1.167492,0 1.833936,0.7588699 0.666443,0.7588699 0.666443,2.1014859 0,1.3377514 -0.666443,2.10148587 -0.666444,0.7588699 -1.833936,0.7588699 -1.1723565,0 -1.8388,-0.7588699 -0.6615789,-0.76373447 -0.6615789,-2.10148587 0,-1.342616 0.6615789,-2.1014859 0.6664435,-0.7588699 1.8388,-0.7588699 z"
                               id="path297"
                               inkscape:connector-curvature="0" /><path
                               d="M 15.503323,-0.81724451 V 2.0722986 h -0.899942 v -7.5205953 h 0.899942 v 0.8269736 q 0.282144,-0.4864551 0.710225,-0.7199535 0.432945,-0.238363 1.031284,-0.238363 0.992369,0 1.610167,0.7880572 0.622662,0.7880572 0.622662,2.0722986 0,1.2842414 -0.622662,2.07229856 -0.617798,0.78805721 -1.610167,0.78805721 -0.598339,0 -1.031284,-0.23349843 -0.428081,-0.23836298 -0.710225,-0.72481805 z m 3.045209,-1.90203929 q 0,-0.9875038 -0.408622,-1.5469271 -0.403758,-0.5642879 -1.113982,-0.5642879 -0.710225,0 -1.118847,0.5642879 -0.403758,0.5594233 -0.403758,1.5469271 0,0.9875038 0.403758,1.5517916 0.408622,0.55942337 1.118847,0.55942337 0.710224,0 1.113982,-0.55942337 0.408622,-0.5642878 0.408622,-1.5517916 z"
                               id="path299"
                               inkscape:connector-curvature="0" /><path
                               d="m 21.002539,-5.4482967 h 0.895077 V 0 h -0.895077 z m 0,-2.1209441 h 0.895077 v 1.1334403 h -0.895077 z"
                               id="path301"
                               inkscape:connector-curvature="0" /><path
                               d="m 28.105421,-5.2391211 v 0.8367028 q -0.379435,-0.2091757 -0.763734,-0.3113313 -0.379435,-0.1070201 -0.768599,-0.1070201 -0.870755,0 -1.352345,0.5545588 -0.481591,0.5496942 -0.481591,1.5469271 0,0.9972329 0.481591,1.5517916 0.48159,0.54969427 1.352345,0.54969427 0.389164,0 0.768599,-0.10215557 0.384299,-0.10702011 0.763734,-0.3161958 v 0.82697362 q -0.37457,0.17512383 -0.778328,0.26268574 -0.398893,0.08756191 -0.851296,0.08756191 -1.230732,0 -1.95555,-0.77346356 -0.724818,-0.77346351 -0.724818,-2.08689221 0,-1.3328869 0.729683,-2.0966214 0.734547,-0.7637344 2.009059,-0.7637344 0.413487,0 0.807516,0.087562 0.394028,0.082697 0.763734,0.2529565 z"
                               id="path303"
                               inkscape:connector-curvature="0" /><path
                               d="m 31.387693,-4.8207697 q -0.719953,0 -1.138305,0.5642879 -0.418351,0.5594233 -0.418351,1.537198 0,0.9777747 0.413487,1.5420625 0.418351,0.55942337 1.143169,0.55942337 0.715089,0 1.13344,-0.56428787 0.418352,-0.5642879 0.418352,-1.537198 0,-0.9680456 -0.418352,-1.5323335 -0.418351,-0.5691524 -1.13344,-0.5691524 z m 0,-0.7588699 q 1.167492,0 1.833936,0.7588699 0.666443,0.7588699 0.666443,2.1014859 0,1.3377514 -0.666443,2.10148587 -0.666444,0.7588699 -1.833936,0.7588699 -1.172357,0 -1.8388,-0.7588699 -0.661579,-0.76373447 -0.661579,-2.10148587 0,-1.342616 0.661579,-2.1014859 0.666443,-0.7588699 1.8388,-0.7588699 z"
                               id="path305"
                               inkscape:connector-curvature="0" /></g><g
                             id="g98"
                             transform="translate(102.45,165.531)" /></g></g><g
                         id="g100"
                         transform="translate(17.033,-26.584)" /></g></g></g></g><g
                 id="g102"
                 transform="translate(-31.866,-2.501)" /></g></g><g
             id="g104"
             transform="translate(-66.284,-27.855)" /></g></g><g
         id="g106"><path
           d="m 73.24454,-58.63365 h 49.81389 V -38.7081 H 73.24454 Z"
           style="fill:none;stroke:#000000;stroke-width:0.3985;stroke-linecap:butt;stroke-linejoin:miter;stroke-miterlimit:10;stroke-dasharray:none;stroke-opacity:1"
           id="path108"
           inkscape:connector-curvature="0" /><g
           id="g110"
           transform="translate(80.134,-51.106)"><g
             id="g112"><g
               id="g114"
               transform="translate(-101.467,-57.485)"><g
                 aria-label="Mensaje"
                 transform="matrix(1,0,0,-1,101.467,57.485)"
                 style="font-variant:normal;font-weight:normal;font-size:9.96259975px;font-family:CMR10;-inkscape-font-specification:CMR10;writing-mode:lr-tb;fill:#000000;fill-opacity:1;fill-rule:nonzero;stroke:none"
                 id="text118"><path
                   d="m 0.35024765,0 v -0.35024765 q 1.02642015,0 1.02642015,-0.58861063 V -6.1390629 q 0,-0.3161958 -1.02642015,-0.3161958 V -6.8055064 H 2.2328288 q 0.1216137,0 0.1605301,0.1118847 l 2.1695896,5.6380142 2.1695896,-5.6380142 q 0.038916,-0.1118847 0.1605302,-0.1118847 h 1.8825811 v 0.3502477 q -1.0264202,0 -1.0264202,0.3161958 v 5.47261946 q 0,0.31619579 1.0264202,0.31619579 V 0 H 5.8763772 v -0.35024765 q 1.0264202,0 1.0264202,-0.31619579 V -6.4649878 L 4.4510639,-0.11188467 Q 4.4072829,0 4.2856691,0 4.1591908,0 4.1154099,-0.11188467 L 1.6928636,-6.387155 v 5.44829672 q 0,0.58861063 1.0264202,0.58861063 V 0 Z"
                   id="path308"
                   inkscape:connector-curvature="0" /><path
                   d="m 11.613636,0.11188467 q -0.608069,0 -1.118847,-0.3161958 Q 9.9888761,-0.52537147 9.6970031,-1.0556075 9.4099946,-1.5907081 9.4099946,-2.1841832 q 0,-0.5837461 0.2626857,-1.1091176 0.2675503,-0.5253715 0.7394117,-0.8464318 0.476726,-0.3259249 1.060472,-0.3259249 0.457268,0 0.792922,0.1556656 0.340518,0.1508011 0.559423,0.4232159 0.218905,0.2724149 0.33079,0.6421207 0.111884,0.3697059 0.111884,0.81238 0,0.1313428 -0.102155,0.1313428 h -2.884679 v 0.1070202 q 0,0.8269736 0.33079,1.42044874 0.335654,0.59347519 1.089659,0.59347519 0.306467,0 0.564288,-0.13620742 0.262686,-0.13620742 0.452403,-0.37943495 0.194582,-0.24322754 0.262686,-0.52050696 0.0097,-0.034052 0.03405,-0.058375 0.02919,-0.029187 0.06324,-0.029187 h 0.08756 q 0.102155,0 0.102155,0.1264783 -0.141072,0.56428792 -0.608069,0.92912922 -0.466996,0.35997675 -1.045878,0.35997675 z M 10.290478,-2.5490245 h 2.271745 q 0,-0.3745704 -0.10702,-0.7588699 -0.102155,-0.3842996 -0.345383,-0.6372562 -0.243227,-0.2578212 -0.637256,-0.2578212 -0.564288,0 -0.875619,0.5302361 -0.306467,0.5253714 -0.306467,1.1237112 z"
                   id="path310"
                   inkscape:connector-curvature="0" /><path
                   d="m 13.856832,0 v -0.35024765 q 0.340519,0 0.559424,-0.05351 0.218905,-0.0535101 0.218905,-0.26268574 V -3.3857273 q 0,-0.2675502 -0.0827,-0.3842995 -0.07783,-0.1216137 -0.228634,-0.1459365 -0.150801,-0.029187 -0.466997,-0.029187 v -0.3502476 l 1.444772,-0.1070201 v 0.9729101 q 0.199447,-0.4280805 0.588611,-0.7004953 0.394028,-0.2724148 0.856161,-0.2724148 0.690766,0 1.036149,0.3307894 0.350247,0.3307894 0.350247,1.0118265 v 2.39335896 q 0,0.20917568 0.218905,0.26268574 0.218905,0.05351 0.559424,0.05351 V 0 h -2.281475 v -0.35024765 q 0.340519,0 0.559424,-0.05351 0.218904,-0.0535101 0.218904,-0.26268574 V -3.0306151 q 0,-0.486455 -0.141072,-0.7977863 -0.141072,-0.3161958 -0.578881,-0.3161958 -0.578882,0 -0.953452,0.4621323 -0.369706,0.4621324 -0.369706,1.050743 v 1.96527846 q 0,0.20917568 0.218905,0.26268574 0.218905,0.05351 0.554559,0.05351 V 0 Z"
                   id="path312"
                   inkscape:connector-curvature="0" /><path
                   d="m 19.426105,0.0291873 v -1.6247599 q 0,-0.077833 0.08756,-0.077833 h 0.121614 q 0.05838,0 0.07783,0.077833 0.277279,1.44477153 1.342616,1.44477153 0.471861,0 0.788057,-0.21404023 0.32106,-0.21404023 0.32106,-0.6615789 0,-0.3210603 -0.248092,-0.5448297 -0.248092,-0.2286338 -0.58861,-0.3113312 L 20.661701,-2.013924 q -0.335654,-0.072968 -0.612933,-0.2237693 -0.272415,-0.1508011 -0.447539,-0.3988932 -0.175124,-0.2529566 -0.175124,-0.583746 0,-0.4378096 0.228634,-0.715089 0.233499,-0.2821439 0.603205,-0.4037577 0.369705,-0.1264783 0.797786,-0.1264783 0.510778,0 0.890213,0.2724148 l 0.287008,-0.2480921 q 0,-0.024323 0.04865,-0.024323 h 0.07297 q 0.02919,0 0.05351,0.029187 0.02432,0.024323 0.02432,0.05351 v 1.3036995 q 0,0.092427 -0.07783,0.092427 h -0.121614 q -0.08756,0 -0.08756,-0.092427 0,-0.5205069 -0.291873,-0.8367027 -0.287008,-0.3161958 -0.807515,-0.3161958 -0.447539,0 -0.778328,0.1653947 -0.325925,0.1653948 -0.325925,0.5691525 0,0.2772794 0.233498,0.4572677 0.238363,0.1751239 0.554559,0.2529567 l 0.676172,0.1264783 q 0.340519,0.077833 0.632392,0.2626857 0.296738,0.1848529 0.466997,0.4669969 0.175124,0.2821439 0.175124,0.6372561 0,0.35997677 -0.126479,0.62752706 -0.121613,0.26268574 -0.345383,0.43780956 -0.218904,0.17512382 -0.520507,0.25782118 -0.301602,0.08269737 -0.632391,0.08269737 -0.622663,0 -1.065337,-0.41835136 l -0.364841,0.3940286 q 0,0.02432276 -0.05351,0.02432276 h -0.05837 q -0.08756,0 -0.08756,-0.08269737 z"
                   id="path314"
                   inkscape:connector-curvature="0" /><path
                   d="m 23.423458,-0.97777468 q 0,-0.59347522 0.466997,-0.96318102 0.466997,-0.3745704 1.118846,-0.5253715 0.656715,-0.1556656 1.245325,-0.1556656 v -0.4086223 q 0,-0.2870085 -0.126478,-0.5545587 -0.126478,-0.2724149 -0.364841,-0.4426741 -0.238363,-0.1751239 -0.525372,-0.1751239 -0.661579,0 -1.006962,0.2967376 0.189718,0 0.311332,0.1459365 0.126478,0.141072 0.126478,0.3307895 0,0.1994466 -0.141072,0.3405185 -0.141072,0.141072 -0.335654,0.141072 -0.199447,0 -0.340519,-0.141072 -0.141072,-0.1410719 -0.141072,-0.3405185 0,-0.5253715 0.476726,-0.7783281 0.476726,-0.2578212 1.050743,-0.2578212 0.403758,0 0.81238,0.1751238 0.408623,0.1702593 0.666444,0.4913196 0.262685,0.3210604 0.262685,0.7491408 v 2.24255789 q 0,0.19458203 0.0827,0.35997675 0.0827,0.16053017 0.257821,0.16053017 0.165395,0 0.243228,-0.16539472 0.0827,-0.16539472 0.0827,-0.3551122 V -1.4447715 h 0.291873 v 0.63725609 q 0,0.22376933 -0.116749,0.42808046 -0.11675,0.19944658 -0.316196,0.32106034 -0.194582,0.11674922 -0.423216,0.11674922 -0.291873,0 -0.505913,-0.22376933 Q 26.366516,-0.3940286 26.342193,-0.70535985 26.15734,-0.33078944 25.797364,-0.10702011 25.437387,0.11188467 25.028765,0.11188467 24.64933,0.11188467 24.279624,0 23.914783,-0.11188467 23.66669,-0.35024765 23.423463,-0.59347518 23.423463,-0.97777468 Z m 0.807515,0 q 0,0.35024764 0.257821,0.58861063 0.257822,0.23836298 0.608069,0.23836298 0.321061,0 0.583746,-0.16053017 0.262686,-0.16053017 0.418352,-0.43780956 0.155665,-0.2772794 0.155665,-0.5837461 v -1.0361493 q -0.452403,0 -0.929129,0.1508011 -0.471861,0.1459365 -0.783192,0.4621323 -0.311332,0.3161958 -0.311332,0.77832812 z"
                   id="path316"
                   inkscape:connector-curvature="0" /><path
                   d="m 28.763217,1.6734054 q 0.228634,0.1118847 0.515642,0.1118847 0.394029,0 0.54483,-0.4037577 0.155666,-0.39889317 0.155666,-0.86589003 V -3.3857273 q 0,-0.2675502 -0.09729,-0.3842995 -0.09729,-0.1216137 -0.267551,-0.1459365 -0.165394,-0.029187 -0.491319,-0.029187 v -0.3502476 l 1.551791,-0.1070201 v 4.96184163 q 0,0.3842995 -0.189717,0.72481807 -0.189718,0.3453831 -0.515643,0.5496942 -0.325924,0.2091757 -0.710224,0.2091757 -0.432945,0 -0.783193,-0.2140403 -0.350247,-0.2140402 -0.350247,-0.6032042 0,-0.1945821 0.141072,-0.33565403 0.141072,-0.14107197 0.335654,-0.14107197 0.194582,0 0.335654,0.14107197 0.141072,0.14107193 0.141072,0.33565403 0,0.150801 -0.08756,0.2772794 -0.0827,0.1264783 -0.228634,0.1702592 z m 0.817244,-7.7881456 q 0,-0.2189048 0.165395,-0.3842995 0.165395,-0.1653947 0.3843,-0.1653947 0.136207,0 0.26755,0.072968 0.131343,0.072968 0.204311,0.2043111 0.07297,0.1313428 0.07297,0.2724148 0,0.2140402 -0.16053,0.379435 -0.16053,0.1653947 -0.384299,0.1653947 -0.218905,0 -0.3843,-0.1653947 -0.165395,-0.1653948 -0.165395,-0.379435 z"
                   id="path318"
                   inkscape:connector-curvature="0" /><path
                   d="m 34.089262,0.11188467 q -0.608069,0 -1.118847,-0.3161958 -0.505913,-0.32106034 -0.797786,-0.85129637 -0.287008,-0.5351006 -0.287008,-1.1285757 0,-0.5837461 0.262685,-1.1091176 0.267551,-0.5253715 0.739412,-0.8464318 0.476726,-0.3259249 1.060472,-0.3259249 0.457268,0 0.792922,0.1556656 0.340518,0.1508011 0.559423,0.4232159 0.218905,0.2724149 0.33079,0.6421207 0.111884,0.3697059 0.111884,0.81238 0,0.1313428 -0.102155,0.1313428 h -2.884679 v 0.1070202 q 0,0.8269736 0.33079,1.42044874 0.335654,0.59347519 1.089659,0.59347519 0.306467,0 0.564288,-0.13620742 0.262686,-0.13620742 0.452403,-0.37943495 0.194582,-0.24322754 0.262686,-0.52050696 0.0097,-0.034052 0.03405,-0.058375 0.02919,-0.029187 0.06324,-0.029187 h 0.08756 q 0.102155,0 0.102155,0.1264783 -0.141072,0.56428792 -0.608069,0.92912922 -0.466996,0.35997675 -1.045878,0.35997675 z M 32.766104,-2.5490245 h 2.271745 q 0,-0.3745704 -0.10702,-0.7588699 -0.102155,-0.3842996 -0.345383,-0.6372562 -0.243227,-0.2578212 -0.637256,-0.2578212 -0.564288,0 -0.875619,0.5302361 -0.306467,0.5253714 -0.306467,1.1237112 z"
                   id="path320"
                   inkscape:connector-curvature="0" /></g><g
                 id="g120"
                 transform="translate(101.467,57.485)" /></g></g><g
             id="g122"
             transform="translate(-80.134,51.106)" /></g></g><path
         d="m 69.8032,-105.07104 h 56.69362 v 28.34679 H 69.8032 Z"
         style="fill:#ccffcc;fill-opacity:1;fill-rule:nonzero;stroke:#000000;stroke-width:0.3985;stroke-linecap:butt;stroke-linejoin:miter;stroke-miterlimit:10;stroke-dasharray:none;stroke-opacity:1"
         id="path140"
         inkscape:connector-curvature="0" /><path
         style="font-variant:normal;font-weight:normal;font-size:9.96259975px;font-family:CMBX10;-inkscape-font-specification:CMBX10;writing-mode:lr-tb;fill:#000000;fill-opacity:1;fill-rule:nonzero;stroke:none"
         inkscape:connector-curvature="0"
         id="path323"
         d="m 81.143775,-86.126226 h 1.464229 l 1.853394,-4.942383 1.863123,4.942383 h 1.46423 V -93.389 h -0.958317 v 6.377426 l -1.872852,-4.9813 h -0.987503 l -1.872852,4.9813 V -93.389 h -0.953452 z" /><path
         style="font-variant:normal;font-weight:normal;font-size:9.96259975px;font-family:CMBX10;-inkscape-font-specification:CMBX10;writing-mode:lr-tb;fill:#000000;fill-opacity:1;fill-rule:nonzero;stroke:none"
         inkscape:connector-curvature="0"
         id="path325"
         d="m 93.641268,-90.441082 v -0.43781 h -4.11541 q 0.05838,-0.924264 0.554559,-1.41072 0.501049,-0.48159 1.391261,-0.48159 0.515643,0 0.997233,0.126478 0.486455,0.126479 0.963181,0.379435 v -0.846432 q -0.48159,-0.204311 -0.987503,-0.311331 -0.505914,-0.10702 -1.026421,-0.10702 -1.303699,0 -2.067434,0.75887 -0.75887,0.75887 -0.75887,2.05284 0,1.337752 0.719954,2.120944 0.724818,0.788058 1.950685,0.788058 1.099388,0 1.736644,-0.710225 0.642121,-0.70536 0.642121,-1.921497 z m -0.895077,0.262685 q -0.0097,0.734548 -0.413487,1.172357 -0.398893,0.43781 -1.060472,0.43781 -0.749141,0 -1.201544,-0.423216 -0.447539,-0.423216 -0.515643,-1.191815 z" /><path
         style="font-variant:normal;font-weight:normal;font-size:9.96259975px;font-family:CMBX10;-inkscape-font-specification:CMBX10;writing-mode:lr-tb;fill:#000000;fill-opacity:1;fill-rule:nonzero;stroke:none"
         inkscape:connector-curvature="0"
         id="path327"
         d="M 98.761212,-90.100564 V -93.389 h -0.895078 v 3.259249 q 0,0.773464 -0.301602,1.157763 -0.301602,0.3843 -0.904806,0.3843 -0.724818,0 -1.14317,-0.462133 -0.418351,-0.462132 -0.418351,-1.259918 V -93.389 h -0.899942 v 5.448297 h 0.899942 v -0.846432 q 0.32106,0.49132 0.754005,0.734547 0.43781,0.243228 1.006962,0.243228 0.938859,0 1.420449,-0.583747 0.481591,-0.578881 0.481591,-1.707457 z" /><path
         style="font-variant:normal;font-weight:normal;font-size:9.96259975px;font-family:CMBX10;-inkscape-font-specification:CMBX10;writing-mode:lr-tb;fill:#000000;fill-opacity:1;fill-rule:nonzero;stroke:none"
         inkscape:connector-curvature="0"
         id="path329"
         d="m 104.07071,-88.101233 v -0.846432 q -0.37944,0.194582 -0.78806,0.291873 -0.40862,0.09729 -0.84643,0.09729 -0.66644,0 -1.0021,-0.204311 -0.33079,-0.204311 -0.33079,-0.612934 0,-0.311331 0.23837,-0.491319 0.23836,-0.175124 0.95831,-0.335654 l 0.30647,-0.0681 q 0.95345,-0.204311 1.35234,-0.578882 0.40376,-0.369706 0.40376,-1.036149 0,-0.75887 -0.6032,-1.201544 -0.59834,-0.442674 -1.64909,-0.442674 -0.43781,0 -0.91453,0.08756 -0.47186,0.0827 -0.99723,0.252956 v 0.924265 q 0.49618,-0.257821 0.97777,-0.389164 0.48159,-0.126478 0.95345,-0.126478 0.6324,0 0.97291,0.21404 0.34052,0.218905 0.34052,0.612933 0,0.364842 -0.24809,0.559424 -0.24323,0.194582 -1.07507,0.37457 l -0.31133,0.07297 q -0.83183,0.175124 -1.20154,0.535101 -0.36971,0.364841 -0.36971,0.997233 0,0.768599 0.54483,1.18695 0.54483,0.418351 1.54693,0.418351 0.49618,0 0.93399,-0.07297 0.43781,-0.07297 0.80752,-0.218904 z" /><path
         style="font-variant:normal;font-weight:normal;font-size:9.96259975px;font-family:CMBX10;-inkscape-font-specification:CMBX10;writing-mode:lr-tb;fill:#000000;fill-opacity:1;fill-rule:nonzero;stroke:none"
         inkscape:connector-curvature="0"
         id="path331"
         d="m 107.59251,-90.650258 q -1.08479,0 -1.50314,-0.248092 -0.41836,-0.248092 -0.41836,-0.846432 0,-0.476726 0.31133,-0.75887 0.3162,-0.277279 0.85617,-0.277279 0.74427,0 1.19181,0.525371 0.4524,0.530236 0.4524,1.405855 v 0.199447 z m 1.78529,0.369706 V -93.389 h -0.89508 v 0.826974 q -0.30646,-0.496185 -0.76373,-0.734548 -0.45727,-0.233498 -1.11885,-0.233498 -0.8367,0 -1.33288,0.466997 -0.49132,0.471861 -0.49132,1.259919 0,0.9194 0.61293,1.386397 0.6178,0.466996 1.8388,0.466996 h 1.25505 v 0.08756 q 0,0.617798 -0.40862,0.953452 -0.40376,0.340519 -1.1383,0.340519 -0.467,0 -0.90967,-0.111885 -0.44268,-0.111885 -0.8513,-0.335654 v 0.826974 q 0.49132,0.189717 0.95345,0.282144 0.46213,0.09729 0.89994,0.09729 1.18209,0 1.76584,-0.612934 0.58374,-0.612933 0.58374,-1.858258 z" /><path
         style="font-variant:normal;font-weight:normal;font-size:9.96259975px;font-family:CMBX10;-inkscape-font-specification:CMBX10;writing-mode:lr-tb;fill:#000000;fill-opacity:1;fill-rule:nonzero;stroke:none"
         inkscape:connector-curvature="0"
         id="path333"
         d="m 111.32315,-87.940703 h 0.89508 v -5.545588 q 0,-1.041014 -0.39889,-1.508011 -0.39403,-0.466997 -1.27451,-0.466997 h -0.34052 v 0.75887 h 0.23836 q 0.51078,0 0.69563,0.238363 0.18485,0.233499 0.18485,0.977775 z m 0,2.120944 h 0.89508 v -1.13344 h -0.89508 z" /><path
         style="font-variant:normal;font-weight:normal;font-size:9.96259975px;font-family:CMBX10;-inkscape-font-specification:CMBX10;writing-mode:lr-tb;fill:#000000;fill-opacity:1;fill-rule:nonzero;stroke:none"
         inkscape:connector-curvature="0"
         id="path335"
         d="m 119.48425,-90.441082 v -0.43781 h -4.11541 q 0.0584,-0.924264 0.55456,-1.41072 0.50105,-0.48159 1.39126,-0.48159 0.51564,0 0.99723,0.126478 0.48646,0.126479 0.96319,0.379435 v -0.846432 q -0.48159,-0.204311 -0.98751,-0.311331 -0.50591,-0.10702 -1.02642,-0.10702 -1.3037,0 -2.06743,0.75887 -0.75887,0.75887 -0.75887,2.05284 0,1.337752 0.71995,2.120944 0.72482,0.788058 1.95069,0.788058 1.09938,0 1.73664,-0.710225 0.64212,-0.70536 0.64212,-1.921497 z m -0.89508,0.262685 q -0.01,0.734548 -0.41348,1.172357 -0.3989,0.43781 -1.06047,0.43781 -0.74915,0 -1.20155,-0.423216 -0.44754,-0.423216 -0.51564,-1.191815 z" /><g
         id="g156"
         transform="translate(69.604,-105.269)" /><g
         id="g160"><path
           d="m 175.16919,-9.96277 h 49.81389 V 9.96278 h -49.81389 z"
           style="fill:none;stroke:#000000;stroke-width:0.3985;stroke-linecap:butt;stroke-linejoin:miter;stroke-miterlimit:10;stroke-dasharray:none;stroke-opacity:1"
           id="path162"
           inkscape:connector-curvature="0" /><g
           id="g164"
           transform="translate(183.04,-3.404)"><g
             id="g166"><g
               id="g168"
               transform="translate(-204.373,-105.187)"><g
                 aria-label="Servicio"
                 transform="matrix(1,0,0,-1,204.373,105.187)"
                 style="font-variant:normal;font-weight:normal;font-size:9.96259975px;font-family:CMR10;-inkscape-font-specification:CMR10;writing-mode:lr-tb;fill:#000000;fill-opacity:1;fill-rule:nonzero;stroke:none"
                 id="text172"><path
                   d="M 0.55942333,0.14107197 V -2.1841832 q 0,-0.077833 0.0875619,-0.077833 H 0.768599 q 0.0291873,0 0.0535101,0.024323 0.0243228,0.024323 0.0243228,0.05351 0,0.9777746 0.6032043,1.51773976 0.6080688,0.53510057 1.5907081,0.53510057 0.3453831,0 0.6372561,-0.19944657 0.291873,-0.19944658 0.4524032,-0.52050693 0.1653947,-0.32592493 0.1653947,-0.67130803 0,-0.3016021 -0.1216137,-0.583746 Q 4.0521707,-2.3933589 3.8235368,-2.6025346 3.5949029,-2.8117103 3.3078944,-2.879814 L 2.013924,-3.1960098 q -0.6421207,-0.1702593 -1.05074297,-0.6956307 -0.4037577,-0.5302361 -0.4037577,-1.1869504 0,-0.5156424 0.26268573,-0.9680456 0.26268574,-0.4524032 0.70535984,-0.7150889 0.4475387,-0.2626858 0.963181,-0.2626858 0.9972329,0 1.5858436,0.6761726 l 0.4086222,-0.6469853 q 0.029187,-0.029187 0.068104,-0.029187 h 0.068104 q 0.029187,0 0.05351,0.024323 0.029187,0.019458 0.029187,0.058375 v 2.3106616 q 0,0.087562 -0.082697,0.087562 H 4.5045739 q -0.092426,0 -0.092426,-0.087562 0,-0.2529567 -0.087562,-0.5545588 Q 4.2418882,-5.4872131 4.0910871,-5.7644925 3.940286,-6.0417719 3.7651622,-6.2168957 3.2835717,-6.7033508 2.4906499,-6.7033508 q -0.3405185,0 -0.627527,0.1751238 -0.2870085,0.1702593 -0.4572678,0.4669969 -0.1702592,0.2967376 -0.1702592,0.6226625 0,0.4280804 0.2626857,0.7783281 0.2675503,0.3453831 0.6956307,0.4572677 l 1.2939705,0.3161958 q 0.3210604,0.077833 0.6032043,0.282144 0.2870085,0.1994465 0.476726,0.4669968 0.1897174,0.2675503 0.2967376,0.5983398 0.1070201,0.3259248 0.1070201,0.6761725 0,0.5399651 -0.2480921,1.02155564 -0.2480921,0.47672596 -0.7004953,0.768599 -0.4475387,0.29187304 -0.9826392,0.29187304 -0.3307895,0 -0.6761726,-0.0729683 Q 2.0187885,0.07296826 1.7269155,-0.07783281 1.4350424,-0.22863388 1.1966795,-0.46699686 L 0.77832811,0.18971748 q -0.0291873,0.0291873 -0.0729683,0.0291873 h -0.0583746 q -0.0875619,0 -0.0875619,-0.0778328 z"
                   id="path338"
                   inkscape:connector-curvature="0" /><path
                   d="m 8.0161415,0.11188467 q -0.6080689,0 -1.1188467,-0.3161958 Q 6.3913815,-0.52537147 6.0995085,-1.0556075 5.8125,-1.5907081 5.8125,-2.1841832 q 0,-0.5837461 0.2626857,-1.1091176 0.2675503,-0.5253715 0.7394117,-0.8464318 0.476726,-0.3259249 1.0604721,-0.3259249 0.4572678,0 0.7929217,0.1556656 0.3405186,0.1508011 0.5594234,0.4232159 0.2189048,0.2724149 0.3307894,0.6421207 0.1118847,0.3697059 0.1118847,0.81238 0,0.1313428 -0.1021556,0.1313428 H 6.6832546 v 0.1070202 q 0,0.8269736 0.3307894,1.42044874 0.335654,0.59347519 1.0896594,0.59347519 0.3064667,0 0.5642878,-0.13620742 0.2626858,-0.13620742 0.4524033,-0.37943495 0.194582,-0.24322754 0.2626857,-0.52050696 0.00973,-0.034052 0.034052,-0.058375 0.029187,-0.029187 0.063239,-0.029187 h 0.087562 q 0.1021556,0 0.1021556,0.1264783 Q 9.5290168,-0.61293348 9.06202,-0.24809218 8.595023,0.11188467 8.0161415,0.11188467 Z M 6.6929837,-2.5490245 h 2.2717451 q 0,-0.3745704 -0.1070201,-0.7588699 Q 8.7555532,-3.692194 8.5123256,-3.9451506 8.2690981,-4.2029718 7.8750695,-4.2029718 q -0.5642879,0 -0.8756191,0.5302361 -0.3064667,0.5253714 -0.3064667,1.1237112 z"
                   id="path340"
                   inkscape:connector-curvature="0" /><path
                   d="m 10.220421,0 v -0.35024765 q 0.340518,0 0.559423,-0.05351 0.218905,-0.0535101 0.218905,-0.26268574 V -3.3857273 q 0,-0.2675502 -0.0827,-0.3842995 -0.07783,-0.1216137 -0.228634,-0.1459365 -0.150801,-0.029187 -0.466997,-0.029187 v -0.3502476 l 1.425313,-0.1070201 v 0.9729101 q 0.16053,-0.432945 0.457268,-0.7004953 0.296738,-0.2724148 0.719954,-0.2724148 0.296737,0 0.530236,0.1751238 0.233498,0.1751238 0.233498,0.4621323 0,0.1799884 -0.131343,0.3161958 -0.126478,0.1313428 -0.316196,0.1313428 -0.184853,0 -0.316195,-0.1313428 -0.131343,-0.1313429 -0.131343,-0.3161958 0,-0.2675503 0.189717,-0.379435 h -0.05837 q -0.403758,0 -0.661579,0.2918731 -0.252957,0.291873 -0.359977,0.724818 -0.10702,0.432945 -0.10702,0.8269736 v 1.63448906 q 0,0.31619579 0.968045,0.31619579 V 0 Z"
                   id="path342"
                   inkscape:connector-curvature="0" /><path
                   d="m 16.297226,0 -1.454501,-3.6581421 q -0.09243,-0.1848529 -0.287009,-0.2334984 -0.189717,-0.05351 -0.501048,-0.05351 v -0.3502476 h 2.091756 v 0.3502476 q -0.559423,0 -0.559423,0.238363 0,0.038916 0.0097,0.058375 l 1.118847,2.81171029 1.006962,-2.53929549 q 0.02919,-0.077833 0.02919,-0.1605301 0,-0.1897175 -0.145936,-0.2967376 -0.141072,-0.1118847 -0.335654,-0.1118847 v -0.3502476 h 1.653947 v 0.3502476 q -0.306467,0 -0.539965,0.141072 -0.228634,0.141072 -0.355112,0.4183513 L 16.68639,0 q -0.03892,0.11188467 -0.160531,0.11188467 h -0.07297 Q 16.331277,0.11188467 16.297226,0 Z"
                   id="path344"
                   inkscape:connector-curvature="0" /><path
                   d="m 19.429678,0 v -0.35024765 q 0.340518,0 0.559423,-0.05351 0.218905,-0.0535101 0.218905,-0.26268574 V -3.3857273 q 0,-0.3842995 -0.150801,-0.4718614 -0.145937,-0.087562 -0.583746,-0.087562 v -0.3502476 l 1.435042,-0.1070201 v 3.73597486 q 0,0.20917568 0.189717,0.26268574 0.189718,0.05351 0.505914,0.05351 V 0 Z m 0.423216,-6.1147402 q 0,-0.2189048 0.165394,-0.3842995 0.165395,-0.1653947 0.379435,-0.1653947 0.141072,0 0.272415,0.072968 0.131343,0.072968 0.204311,0.2043111 0.07297,0.1313428 0.07297,0.2724148 0,0.2140402 -0.165394,0.379435 -0.165395,0.1653947 -0.3843,0.1653947 -0.21404,0 -0.379435,-0.1653947 -0.165394,-0.1653948 -0.165394,-0.379435 z"
                   id="path346"
                   inkscape:connector-curvature="0" /><path
                   d="m 24.371742,0.11188467 q -0.603204,0 -1.094524,-0.31133125 -0.491319,-0.31619579 -0.773463,-0.83670272 -0.282144,-0.5253715 -0.282144,-1.1139821 0,-0.5886106 0.277279,-1.1285757 0.282144,-0.5399652 0.773464,-0.8610255 0.496184,-0.3259249 1.099388,-0.3259249 0.583746,0 1.060472,0.2286339 0.481591,0.2286339 0.481591,0.7491408 0,0.194582 -0.141072,0.3405185 -0.136208,0.141072 -0.335654,0.141072 -0.199447,0 -0.340519,-0.141072 -0.136207,-0.1459365 -0.136207,-0.3405185 0,-0.1751238 0.111885,-0.3016022 0.111884,-0.1313428 0.277279,-0.1653947 -0.345383,-0.2189048 -0.968046,-0.2189048 -0.476726,0 -0.768599,0.3161958 -0.291873,0.3161958 -0.408622,0.7831927 -0.116749,0.4669968 -0.116749,0.9242646 0,0.4815905 0.141072,0.9339937 0.145936,0.4475387 0.462132,0.74427629 0.321061,0.29187304 0.802651,0.29187304 0.471861,0 0.802651,-0.28700849 0.330789,-0.29187304 0.452403,-0.75886994 0,-0.058375 0.07783,-0.058375 h 0.121614 q 0.02919,0 0.05351,0.029187 0.02432,0.024323 0.02432,0.058375 v 0.029187 q -0.150802,0.58861067 -0.59834,0.93399377 -0.447539,0.3453831 -1.055608,0.3453831 z"
                   id="path348"
                   inkscape:connector-curvature="0" /><path
                   d="m 26.624668,0 v -0.35024765 q 0.340518,0 0.559423,-0.05351 0.218905,-0.0535101 0.218905,-0.26268574 V -3.3857273 q 0,-0.3842995 -0.150801,-0.4718614 -0.145937,-0.087562 -0.583746,-0.087562 v -0.3502476 l 1.435042,-0.1070201 v 3.73597486 q 0,0.20917568 0.189718,0.26268574 0.189717,0.05351 0.505913,0.05351 V 0 Z m 0.423216,-6.1147402 q 0,-0.2189048 0.165394,-0.3842995 0.165395,-0.1653947 0.379435,-0.1653947 0.141072,0 0.272415,0.072968 0.131343,0.072968 0.204311,0.2043111 0.07297,0.1313428 0.07297,0.2724148 0,0.2140402 -0.165395,0.379435 -0.165395,0.1653947 -0.3843,0.1653947 -0.21404,0 -0.379435,-0.1653947 -0.165394,-0.1653948 -0.165394,-0.379435 z"
                   id="path350"
                   inkscape:connector-curvature="0" /><path
                   d="m 31.576462,0.11188467 q -0.59834,0 -1.109118,-0.30160215 -0.510778,-0.30646669 -0.807515,-0.81724452 -0.296738,-0.5107778 -0.296738,-1.1139821 0,-0.4572678 0.16053,-0.8804837 0.165395,-0.4232159 0.466997,-0.7540053 0.306467,-0.335654 0.710224,-0.5205069 0.403758,-0.1897175 0.87562,-0.1897175 0.612933,0 1.113982,0.3259249 0.505913,0.3210603 0.797786,0.86589 0.291873,0.5399651 0.291873,1.1528985 0,0.5983397 -0.296738,1.1139821 -0.296737,0.51077783 -0.807515,0.81724452 -0.505913,0.30160215 -1.099388,0.30160215 z m 0,-0.29187304 q 0.797786,0 1.065336,-0.57888153 0.26755,-0.5788815 0.26755,-1.4739589 0,-0.5010487 -0.05351,-0.8269736 -0.05351,-0.3307894 -0.233498,-0.5983397 -0.111885,-0.1653947 -0.287009,-0.2870085 -0.170259,-0.1264783 -0.364841,-0.1897175 -0.189717,-0.068104 -0.394028,-0.068104 -0.311332,0 -0.593476,0.141072 -0.277279,0.141072 -0.462132,0.4037577 -0.184853,0.2821439 -0.238363,0.6226625 -0.04865,0.335654 -0.04865,0.8026508 0,0.5594234 0.09729,1.006962 0.09729,0.44267414 0.389164,0.74427628 0.296737,0.30160215 0.856161,0.30160215 z"
                   id="path352"
                   inkscape:connector-curvature="0" /></g><g
                 id="g174"
                 transform="translate(204.373,105.187)" /></g></g><g
             id="g176"
             transform="translate(-183.04,3.404)" /></g></g><g
         id="g178"><g
           id="g180"
           transform="translate(162.148,27.855)"><g
             id="g182"><g
               id="g184"
               transform="translate(37.93,-0.007)"><g
                 id="g186"><g
                   id="g188"><g
                     id="g190"><g
                       id="g192"><path
                         d="M 18.85898,65.5506 H -18.86777 L -37.73116,32.87817 -18.86777,0.20575 h 37.72675 l 18.86339,32.67242 z"
                         style="fill:#ffcccc;fill-opacity:1;fill-rule:nonzero;stroke:#000000;stroke-width:0.3985;stroke-linecap:butt;stroke-linejoin:miter;stroke-miterlimit:10;stroke-dasharray:none;stroke-opacity:1"
                         id="path194"
                         inkscape:connector-curvature="0" /></g><g
                       id="g196"
                       transform="translate(-19.788,29.419)"><g
                         id="g198"><g
                           id="g200"
                           transform="translate(-201.623,-165.858)"><g
                             aria-label="Servicio"
                             transform="matrix(1,0,0,-1,201.623,165.858)"
                             style="font-variant:normal;font-weight:normal;font-size:9.96259975px;font-family:CMBX10;-inkscape-font-specification:CMBX10;writing-mode:lr-tb;fill:#000000;fill-opacity:1;fill-rule:nonzero;stroke:none"
                             id="text204"><path
                               d="m 5.3315475,-7.0244112 v 0.9583165 Q 4.7721242,-6.333645 4.27594,-6.4649878 3.7797559,-6.5963307 3.3176236,-6.5963307 q -0.8026509,0 -1.2404605,0.3113312 -0.432945,0.3113313 -0.432945,0.8853483 0,0.4815905 0.2870085,0.7296826 0.2918731,0.2432275 1.0993885,0.3940286 l 0.5934751,0.1216137 q 1.0993885,0.2091757 1.6198954,0.7394117 0.5253715,0.5253715 0.5253715,1.4107197 0,1.05560752 -0.7102244,1.6004372 -0.7053599,0.54482967 -2.0722986,0.54482967 -0.5156424,0 -1.0993884,-0.11674922 Q 1.3085641,-0.09242646 0.68590164,-0.32106034 V -1.3328869 q 0.59833976,0.33565401 1.17235676,0.50591329 0.5740169,0.17025927 1.1285757,0.17025927 0.8415673,0 1.298835,-0.33078944 0.4572678,-0.33078942 0.4572678,-0.94372282 0,-0.5351006 -0.3307895,-0.8367027 Q 4.0862226,-3.0695315 3.3370818,-3.2203325 L 2.738742,-3.3370818 Q 1.6393536,-3.5559865 1.148034,-4.0229834 0.65671434,-4.4899803 0.65671434,-5.3218184 q 0,-0.9631811 0.67617256,-1.5177398 0.6810371,-0.5545588 1.872852,-0.5545588 0.5107778,0 1.0410138,0.092426 0.530236,0.092426 1.0847948,0.2772798 z"
                               id="path355"
                               inkscape:connector-curvature="0" /><path
                               d="m 11.964203,-2.9479177 v 0.4378096 H 7.8487931 q 0.058375,0.9242646 0.5545588,1.4107197 0.5010487,0.48159047 1.3912615,0.48159047 0.5156426,0 0.9972326,-0.12647832 0.486455,-0.12647832 0.963181,-0.37943495 v 0.84643181 q -0.48159,0.20431113 -0.987503,0.31133124 -0.505914,0.10702012 -1.0264207,0.10702012 -1.3036996,0 -2.067434,-0.7588699 -0.7588699,-0.75886987 -0.7588699,-2.05284037 0,-1.3377514 0.7199535,-2.1209441 0.724818,-0.7880572 1.9506848,-0.7880572 1.0993883,0 1.7366443,0.7102244 0.642121,0.7053598 0.642121,1.9214975 z m -0.895077,-0.2626857 q -0.0097,-0.7345472 -0.413487,-1.1723567 -0.398893,-0.4378096 -1.0604722,-0.4378096 -0.7491408,0 -1.201544,0.4232159 -0.4475387,0.4232159 -0.5156424,1.1918149 z"
                               id="path357"
                               inkscape:connector-curvature="0" /><path
                               d="m 15.712343,-4.611594 q -0.150801,-0.087562 -0.33079,-0.1264783 -0.175123,-0.043781 -0.389164,-0.043781 -0.75887,0 -1.167492,0.4961842 -0.403758,0.4913196 -0.403758,1.4155842 V 0 h -0.899941 v -5.4482967 h 0.899941 v 0.8464318 q 0.282144,-0.4961842 0.734548,-0.7345472 0.452403,-0.2432275 1.099388,-0.2432275 0.09243,0 0.204311,0.014594 0.111885,0.00973 0.248092,0.034052 z"
                               id="path359"
                               inkscape:connector-curvature="0" /><path
                               d="m 16.631416,-5.4482967 h 0.948588 l 1.702592,4.57267758 1.702593,-4.57267758 h 0.948587 L 19.890665,0 h -1.216137 z"
                               id="path361"
                               inkscape:connector-curvature="0" /><path
                               d="m 23.31984,-5.4482967 h 0.895077 V 0 H 23.31984 Z m 0,-2.1209441 h 0.895077 v 1.1334403 H 23.31984 Z"
                               id="path363"
                               inkscape:connector-curvature="0" /><path
                               d="m 30.422722,-5.2391211 v 0.8367028 q -0.379435,-0.2091757 -0.763734,-0.3113313 -0.379435,-0.1070201 -0.768599,-0.1070201 -0.870755,0 -1.352345,0.5545588 -0.481591,0.5496942 -0.481591,1.5469271 0,0.9972329 0.481591,1.5517916 0.48159,0.54969427 1.352345,0.54969427 0.389164,0 0.768599,-0.10215557 0.384299,-0.10702011 0.763734,-0.3161958 v 0.82697362 q -0.37457,0.17512383 -0.778328,0.26268574 -0.398893,0.08756191 -0.851296,0.08756191 -1.230732,0 -1.95555,-0.77346356 -0.724818,-0.77346351 -0.724818,-2.08689221 0,-1.3328869 0.729683,-2.0966214 0.734547,-0.7637344 2.009059,-0.7637344 0.413487,0 0.807516,0.087562 0.394028,0.082697 0.763734,0.2529565 z"
                               id="path365"
                               inkscape:connector-curvature="0" /><path
                               d="m 31.593779,-5.4482967 h 0.895077 V 0 h -0.895077 z m 0,-2.1209441 h 0.895077 v 1.1334403 h -0.895077 z"
                               id="path367"
                               inkscape:connector-curvature="0" /><path
                               d="m 36.887048,-4.8207697 q -0.719953,0 -1.138304,0.5642879 -0.418352,0.5594233 -0.418352,1.537198 0,0.9777747 0.413487,1.5420625 0.418351,0.55942337 1.143169,0.55942337 0.715089,0 1.133441,-0.56428787 0.418351,-0.5642879 0.418351,-1.537198 0,-0.9680456 -0.418351,-1.5323335 -0.418352,-0.5691524 -1.133441,-0.5691524 z m 0,-0.7588699 q 1.167493,0 1.833936,0.7588699 0.666443,0.7588699 0.666443,2.1014859 0,1.3377514 -0.666443,2.10148587 -0.666443,0.7588699 -1.833936,0.7588699 -1.172356,0 -1.8388,-0.7588699 -0.661579,-0.76373447 -0.661579,-2.10148587 0,-1.342616 0.661579,-2.1014859 0.666444,-0.7588699 1.8388,-0.7588699 z"
                               id="path369"
                               inkscape:connector-curvature="0" /></g><g
                             id="g206"
                             transform="translate(201.623,165.858)" /></g></g><g
                         id="g208"
                         transform="translate(19.788,-29.419)" /></g></g></g></g><g
                 id="g210"
                 transform="translate(-37.93,0.007)" /></g></g><g
             id="g212"
             transform="translate(-162.148,-27.855)" /></g></g><g
         id="g214"><path
           d="m 21.33304,0 h 28.3468 V 0 H 75.4364"
           style="fill:none;stroke:#000000;stroke-width:0.79701;stroke-linecap:butt;stroke-linejoin:miter;stroke-miterlimit:10;stroke-dasharray:none;stroke-opacity:1"
           id="path216"
           inkscape:connector-curvature="0" /><g
           id="g218"
           transform="translate(75.4364)"><g
             id="g220"><path
               d="M 2.59026,0 -1.55415,2.0722 0,0 -1.55415,-2.0722"
               style="fill:#000000;fill-opacity:1;fill-rule:nonzero;stroke:none"
               id="path222"
               inkscape:connector-curvature="0" /></g></g></g><g
         id="g224"><path
           d="m 118.2763,0 h 28.34682 v -48.67087 h -20.77516"
           style="fill:none;stroke:#000000;stroke-width:0.79701;stroke-linecap:butt;stroke-linejoin:miter;stroke-miterlimit:10;stroke-dasharray:none;stroke-opacity:1"
           id="path226"
           inkscape:connector-curvature="0" /><g
           id="g228"
           transform="rotate(180,62.92398,-24.335435)"><g
             id="g230"><path
               d="M 2.59026,0 -1.55415,2.0722 0,0 -1.55415,-2.0722"
               style="fill:#000000;fill-opacity:1;fill-rule:nonzero;stroke:none"
               id="path232"
               inkscape:connector-curvature="0" /></g></g></g><g
         id="g234"><path
           d="M 0,10.16203 V 35.91858"
           style="fill:none;stroke:#000000;stroke-width:0.79701;stroke-linecap:butt;stroke-linejoin:miter;stroke-miterlimit:10;stroke-dasharray:none;stroke-opacity:1"
           id="path236"
           inkscape:connector-curvature="0" /><g
           id="g238"
           transform="rotate(90,-17.95929,17.95929)"><g
             id="g240"><path
               d="M 2.59026,0 -1.55415,2.0722 0,0 -1.55415,-2.0722"
               style="fill:#000000;fill-opacity:1;fill-rule:nonzero;stroke:none"
               id="path242"
               inkscape:connector-curvature="0" /></g></g></g><g
         id="g244"><path
           d="m 118.2763,0 h 28.34682 v 0 h 25.75656"
           style="fill:none;stroke:#000000;stroke-width:0.79701;stroke-linecap:butt;stroke-linejoin:miter;stroke-miterlimit:10;stroke-dasharray:none;stroke-opacity:1"
           id="path246"
           inkscape:connector-curvature="0" /><g
           id="g248"
           transform="translate(172.37968)"><g
             id="g250"><path
               d="M 2.59026,0 -1.55415,2.0722 0,0 -1.55415,-2.0722"
               style="fill:#000000;fill-opacity:1;fill-rule:nonzero;stroke:none"
               id="path252"
               inkscape:connector-curvature="0" /></g></g></g></g></g></svg>