<?xml version="1.0" encoding="UTF-8" standalone="no"?>
<!-- Created with Inkscape (http://www.inkscape.org/) -->

<svg
   xmlns:dc="http://purl.org/dc/elements/1.1/"
   xmlns:cc="http://creativecommons.org/ns#"
   xmlns:rdf="http://www.w3.org/1999/02/22-rdf-syntax-ns#"
   xmlns:svg="http://www.w3.org/2000/svg"
   xmlns="http://www.w3.org/2000/svg"
   xmlns:xlink="http://www.w3.org/1999/xlink"
   xmlns:sodipodi="http://sodipodi.sourceforge.net/DTD/sodipodi-0.dtd"
   xmlns:inkscape="http://www.inkscape.org/namespaces/inkscape"
   version="1.1"
   id="svg2"
   xml:space="preserve"
   width="525.02167"
   height="115.30746"
   viewBox="0 0 525.02167 115.30746"
   sodipodi:docname="urdf2.svg"
   inkscape:version="0.92.5 (2060ec1f9f, 2020-04-08)"><metadata
     id="metadata8"><rdf:RDF><cc:Work
         rdf:about=""><dc:format>image/svg+xml</dc:format><dc:type
           rdf:resource="http://purl.org/dc/dcmitype/StillImage" /><dc:title></dc:title></cc:Work></rdf:RDF></metadata><defs
     id="defs6"><pattern
       inkscape:collect="always"
       xlink:href="#pattern32"
       id="pattern170"
       patternTransform="translate(-14.17339,-30.147224)" /><pattern
       patternTransform="translate(-67.506,-30.256)"
       patternUnits="userSpaceOnUse"
       x="0"
       y="0"
       width="4.98138"
       height="4.98138"
       id="pattern32"><g
         id="g30"><path
           d="M 0,0 3.08846,3.08846"
           style="fill:none;stroke:#a0522d;stroke-opacity:1;stroke-width:0.3985;stroke-linecap:butt;stroke-linejoin:miter;stroke-miterlimit:10;stroke-dasharray:none"
           id="path28" /></g></pattern></defs><sodipodi:namedview
     pagecolor="#ffffff"
     bordercolor="#666666"
     borderopacity="1"
     objecttolerance="10"
     gridtolerance="10"
     guidetolerance="10"
     inkscape:pageopacity="0"
     inkscape:pageshadow="2"
     inkscape:window-width="1314"
     inkscape:window-height="704"
     id="namedview4"
     showgrid="false"
     fit-margin-top="0"
     fit-margin-left="0"
     fit-margin-right="0"
     fit-margin-bottom="0"
     inkscape:zoom="1.2151812"
     inkscape:cx="243.76195"
     inkscape:cy="44.465582"
     inkscape:window-x="52"
     inkscape:window-y="27"
     inkscape:window-maximized="1"
     inkscape:current-layer="g10" /><g
     id="g10"
     inkscape:groupmode="layer"
     inkscape:label="Articulo_Manipuladores_paralelos (5)"
     transform="matrix(1.3333333,0,0,-1.3333333,-71.110145,112.71304)"><g
       id="g12"
       transform="translate(67.506,30.256)"><g
         id="g14"><g
           id="g16"><g
             id="g18"><path
               d="m -7.08669,-14.17339 v 6.20318 c 0,4.40188 1.59568,11.1616 3.56408,15.09848 L -3.56407,7.04512 c 1.9684,3.93688 5.15974,3.93688 7.12814,0 L 3.52261,7.12827 C 5.49101,3.19139 7.08669,-3.56833 7.08669,-7.97021 v -6.20318"
               style="fill:#e3cbc0;fill-opacity:1;fill-rule:nonzero;stroke:#a0522d;stroke-width:0.3985;stroke-linecap:butt;stroke-linejoin:miter;stroke-miterlimit:10;stroke-dasharray:none;stroke-opacity:1"
               id="path20"
               inkscape:connector-curvature="0" /></g><g
             id="g22"><path
               d="M -14.17339,-14.17339 H 14.17339"
               style="fill:none;stroke:#a0522d;stroke-width:0.3985;stroke-linecap:butt;stroke-linejoin:miter;stroke-miterlimit:10;stroke-dasharray:none;stroke-opacity:1"
               id="path24"
               inkscape:connector-curvature="0" /></g><g
             id="g26"><path
               d="m -14.17339,-28.3468 v 14.17341 H 14.17339 V -28.3468 Z"
               style="fill:url(#pattern170);fill-opacity:1;fill-rule:nonzero;stroke:none"
               id="path34"
               inkscape:connector-curvature="0" /></g><g
             id="g36"><g
               id="g38"><path
                 d="M 0,0 28.3468,49.09824"
                 style="fill:none;stroke:#000000;stroke-width:6.64307022;stroke-linecap:butt;stroke-linejoin:miter;stroke-miterlimit:10;stroke-dasharray:none;stroke-opacity:1"
                 id="path40"
                 inkscape:connector-curvature="0" /><g
                 id="g42"><path
                   d="M 0,0 28.3468,49.09824"
                   style="fill:none;stroke:#000000;stroke-width:4.25199986;stroke-linecap:butt;stroke-linejoin:miter;stroke-miterlimit:10;stroke-dasharray:none;stroke-opacity:1"
                   id="path44"
                   inkscape:connector-curvature="0" /></g></g></g><g
             id="g46"><path
               d="M 4.98138,0 C 4.98138,2.75117 2.75117,4.98138 0,4.98138 -2.75117,4.98138 -4.98138,2.75117 -4.98138,0 c 0,-2.75117 2.23021,-4.98138 4.98138,-4.98138 2.75117,0 4.98138,2.23021 4.98138,4.98138 z"
               style="fill:#78143c;fill-opacity:1;fill-rule:nonzero;stroke:#000000;stroke-width:0.3985;stroke-linecap:butt;stroke-linejoin:miter;stroke-miterlimit:10;stroke-dasharray:none;stroke-opacity:1"
               id="path48"
               inkscape:connector-curvature="0" /></g><g
             id="g50"><path
               d="M 1.99255,0 C 1.99255,1.10046 1.10046,1.99255 0,1.99255 -1.10046,1.99255 -1.99255,1.10046 -1.99255,0 c 0,-1.10046 0.89209,-1.99255 1.99255,-1.99255 1.10046,0 1.99255,0.89209 1.99255,1.99255 z"
               style="fill:#000000;fill-opacity:1;fill-rule:nonzero;stroke:none"
               id="path52"
               inkscape:connector-curvature="0" /></g><g
             id="g54"><g
               id="g56"><g
                 id="g58"><path
                   d="M 28.3468,49.09824 77.44504,20.75142"
                   style="fill:none;stroke:#000000;stroke-width:6.64307022;stroke-linecap:butt;stroke-linejoin:miter;stroke-miterlimit:10;stroke-dasharray:none;stroke-opacity:1"
                   id="path60"
                   inkscape:connector-curvature="0" /><g
                   id="g62"><path
                     d="M 28.3468,49.09824 77.44504,20.75142"
                     style="fill:none;stroke:#000000;stroke-width:4.25199986;stroke-linecap:butt;stroke-linejoin:miter;stroke-miterlimit:10;stroke-dasharray:none;stroke-opacity:1"
                     id="path64"
                     inkscape:connector-curvature="0" /></g></g></g><g
               id="g66"><path
                 d="m 30.8375,53.41225 c -2.38259,1.37558 -5.42913,0.55926 -6.80471,-1.82332 -1.37559,-2.3826 -0.55926,-5.42914 1.82332,-6.80472 2.3826,-1.37558 5.42912,-0.55926 6.8047,1.82333 1.37559,2.38259 0.55929,5.42913 -1.82331,6.80471 z"
                 style="fill:#78143c;fill-opacity:1;fill-rule:nonzero;stroke:#000000;stroke-width:0.3985;stroke-linecap:butt;stroke-linejoin:miter;stroke-miterlimit:10;stroke-dasharray:none;stroke-opacity:1"
                 id="path68"
                 inkscape:connector-curvature="0" /></g><g
               id="g70"><path
                 d="m 29.34308,50.82384 c -0.95303,0.55023 -2.17165,0.22369 -2.72188,-0.72933 -0.55025,-0.95303 -0.22371,-2.17164 0.72932,-2.72189 0.95304,-0.55023 2.17165,-0.22369 2.72188,0.72934 0.55025,0.95302 0.22371,2.17164 -0.72932,2.72188 z"
                 style="fill:#000000;fill-opacity:1;fill-rule:nonzero;stroke:none"
                 id="path72"
                 inkscape:connector-curvature="0" /></g><g
               id="g74"><g
                 id="g76"><g
                   id="g78"><path
                     d="M 77.44504,20.75142 V -7.59546"
                     style="fill:none;stroke:#000000;stroke-width:6.64307022;stroke-linecap:butt;stroke-linejoin:miter;stroke-miterlimit:10;stroke-dasharray:none;stroke-opacity:1"
                     id="path80"
                     inkscape:connector-curvature="0" /><g
                     id="g82"><path
                       d="M 77.44504,20.75142 V -7.59546"
                       style="fill:none;stroke:#000000;stroke-width:4.25199986;stroke-linecap:butt;stroke-linejoin:miter;stroke-miterlimit:10;stroke-dasharray:none;stroke-opacity:1"
                       id="path84"
                       inkscape:connector-curvature="0" /></g></g></g><g
                 id="g86"><path
                   d="m 81.75906,18.26073 c 1.37558,2.3826 0.55927,5.42914 -1.82333,6.80471 -2.38258,1.37558 -5.42913,0.55927 -6.8047,-1.82333 -1.37558,-2.38258 -0.55927,-5.42912 1.82332,-6.8047 2.38259,-1.37558 5.42913,-0.55927 6.80471,1.82332 z"
                   style="fill:#78143c;fill-opacity:1;fill-rule:nonzero;stroke:#000000;stroke-width:0.3985;stroke-linecap:butt;stroke-linejoin:miter;stroke-miterlimit:10;stroke-dasharray:none;stroke-opacity:1"
                   id="path88"
                   inkscape:connector-curvature="0" /></g><g
                 id="g90"><path
                   d="m 79.17065,19.75514 c 0.55024,0.95304 0.2237,2.17165 -0.72934,2.7219 -0.95301,0.55023 -2.17164,0.22369 -2.72187,-0.72934 -0.55024,-0.95302 -0.2237,-2.17165 0.72932,-2.72188 0.95304,-0.55023 2.17164,-0.2237 2.72189,0.72932 z"
                   style="fill:#000000;fill-opacity:1;fill-rule:nonzero;stroke:none"
                   id="path92"
                   inkscape:connector-curvature="0" /></g><g
                 id="g94"><g
                   id="g96"><path
                     d="M 85.94917,-7.59546 H 68.94092"
                     style="fill:none;stroke:#228b22;stroke-width:1.59404004;stroke-linecap:butt;stroke-linejoin:miter;stroke-miterlimit:10;stroke-dasharray:none;stroke-opacity:1"
                     id="path98"
                     inkscape:connector-curvature="0" /></g><g
                   id="g100"><path
                     d="m 83.19151,-7.59546 -1.49441,-5.10252 -1.49442,5.10252"
                     style="fill:#228b22;fill-opacity:1;fill-rule:nonzero;stroke:none"
                     id="path102"
                     inkscape:connector-curvature="0" /></g><g
                   id="g104"><path
                     d="M 74.68741,-7.59546 73.193,-12.69798 71.69858,-7.59546"
                     style="fill:#228b22;fill-opacity:1;fill-rule:nonzero;stroke:none"
                     id="path106"
                     inkscape:connector-curvature="0" /></g></g></g></g><g
             id="g108"><path
               d="m 85.04042,0 h 37.85773"
               style="fill:none;stroke:#6a5acd;stroke-width:0.79701;stroke-linecap:butt;stroke-linejoin:miter;stroke-miterlimit:10;stroke-dasharray:none;stroke-opacity:1"
               id="path110"
               inkscape:connector-curvature="0" /><g
               id="g112"
               transform="translate(122.89815)"><g
                 id="g114"><path
                   d="M 4.66248,0 C 3.28098,0.25902 1.0361,1.0361 -0.51805,1.94269 V -1.94269 C 1.0361,-1.0361 3.28098,-0.25902 4.66248,0"
                   style="fill:#6a5acd;fill-opacity:1;fill-rule:nonzero;stroke:none"
                   id="path116"
                   inkscape:connector-curvature="0" /></g></g><g
               id="g118"><g
                 id="g120"
                 transform="translate(97.721,3.719)"><g
                   id="g122"><g
                     id="g124"
                     transform="translate(-165.227,-33.975)"><g
                       aria-label="Info"
                       transform="matrix(1,0,0,-1,165.227,33.975)"
                       style="font-variant:normal;font-weight:normal;font-size:9.96259975px;font-family:CMR10;-inkscape-font-specification:CMR10;writing-mode:lr-tb;fill:#6a5acd;fill-opacity:1;fill-rule:nonzero;stroke:none"
                       id="text128"><path
                         d="m 0.25782119,0 v -0.35024765 q 1.07506571,0 1.07506571,-0.31619579 V -6.1390629 q 0,-0.3161958 -1.07506571,-0.3161958 V -6.8055064 H 3.3370818 v 0.3502477 q -1.0750657,0 -1.0750657,0.3161958 v 5.47261946 q 0,0.31619579 1.0750657,0.31619579 V 0 Z"
                         style=""
                         id="path172" /><path
                         d="m 3.8942324,0 v -0.35024765 q 0.3405186,0 0.5594234,-0.05351 0.2189047,-0.0535101 0.2189047,-0.26268574 V -3.3857273 q 0,-0.2675502 -0.082697,-0.3842995 -0.077833,-0.1216137 -0.2286339,-0.1459365 -0.1508011,-0.029187 -0.4669969,-0.029187 V -4.2953982 L 5.339004,-4.4024183 v 0.9729101 q 0.1994466,-0.4280805 0.5886106,-0.7004953 0.3940286,-0.2724148 0.8561609,-0.2724148 0.6907662,0 1.0361493,0.3307894 0.3502477,0.3307894 0.3502477,1.0118265 v 2.39335896 q 0,0.20917568 0.2189047,0.26268574 0.2189048,0.05351 0.5594234,0.05351 V 0 H 6.6670263 v -0.35024765 q 0.3405186,0 0.5594233,-0.05351 0.2189048,-0.0535101 0.2189048,-0.26268574 V -3.0306151 q 0,-0.486455 -0.141072,-0.7977863 -0.1410719,-0.3161958 -0.5788815,-0.3161958 -0.5788815,0 -0.9534519,0.4621323 -0.3697059,0.4621324 -0.3697059,1.050743 v 1.96527846 q 0,0.20917568 0.2189048,0.26268574 0.2189048,0.05351 0.5545588,0.05351 V 0 Z"
                         style=""
                         id="path174" /><path
                         d="m 9.4537756,0 v -0.35024765 q 0.335654,0 0.5545584,-0.05351 0.218905,-0.0535101 0.218905,-0.26268574 V -3.9451506 H 9.4635047 v -0.3502476 h 0.7637343 v -1.1918149 q 0,-0.3210604 0.131343,-0.5983398 0.136207,-0.2821439 0.359977,-0.4913196 0.228634,-0.2091757 0.520507,-0.3259249 0.296737,-0.1216138 0.612933,-0.1216138 0.335654,0 0.603204,0.1994466 0.272415,0.1994466 0.272415,0.530236 0,0.1897175 -0.131343,0.3210604 -0.126478,0.1264783 -0.316195,0.1264783 -0.189718,0 -0.325925,-0.1264783 -0.131343,-0.1313429 -0.131343,-0.3210604 0,-0.3113312 0.26755,-0.4183513 -0.16053,-0.05351 -0.287008,-0.05351 -0.291874,0 -0.501049,0.2091757 -0.204311,0.2043111 -0.306467,0.5010487 -0.102155,0.2967376 -0.102155,0.5886107 v 1.1723567 h 1.148034 v 0.3502476 h -1.113983 v 3.27870716 q 0,0.20431113 0.291873,0.26268574 0.291873,0.05351 0.671308,0.05351 V 0 Z"
                         style=""
                         id="path176" /><path
                         d="m 14.667936,0.11188467 q -0.59834,0 -1.109117,-0.30160215 -0.510778,-0.30646669 -0.807516,-0.81724452 -0.296737,-0.5107778 -0.296737,-1.1139821 0,-0.4572678 0.16053,-0.8804837 0.165394,-0.4232159 0.466997,-0.7540053 0.306466,-0.335654 0.710224,-0.5205069 0.403758,-0.1897175 0.875619,-0.1897175 0.612933,0 1.113982,0.3259249 0.505913,0.3210603 0.797786,0.86589 0.291874,0.5399651 0.291874,1.1528985 0,0.5983397 -0.296738,1.1139821 -0.296738,0.51077783 -0.807515,0.81724452 -0.505914,0.30160215 -1.099389,0.30160215 z m 0,-0.29187304 q 0.797786,0 1.065337,-0.57888153 0.26755,-0.5788815 0.26755,-1.4739589 0,-0.5010487 -0.05351,-0.8269736 -0.05351,-0.3307894 -0.233499,-0.5983397 -0.111884,-0.1653947 -0.287008,-0.2870085 -0.170259,-0.1264783 -0.364841,-0.1897175 -0.189718,-0.068104 -0.394029,-0.068104 -0.311331,0 -0.593475,0.141072 -0.277279,0.141072 -0.462132,0.4037577 -0.184853,0.2821439 -0.238363,0.6226625 -0.04865,0.335654 -0.04865,0.8026508 0,0.5594234 0.09729,1.006962 0.09729,0.44267414 0.389164,0.74427628 0.296738,0.30160215 0.856161,0.30160215 z"
                         style=""
                         id="path178" /></g><g
                       id="g130"
                       transform="translate(165.227,33.975)" /></g></g><g
                   id="g132"
                   transform="translate(-97.721,-3.719)" /></g></g></g><g
             id="g134"><g
               id="g136"><g
                 id="g138"><g
                   id="g140"
                   transform="translate(2.14474,-2.14474)"><path
                     d="m 377.44815,0 c 0,16.60028 -54.76674,30.05708 -122.32687,30.05708 -67.56012,0 -122.32686,-13.4568 -122.32686,-30.05708 0,-16.60028 54.76674,-30.05708 122.32686,-30.05708 67.56013,0 122.32687,13.4568 122.32687,30.05708 z"
                     style="fill:#808080;fill-opacity:0.5;fill-rule:nonzero;stroke:none"
                     id="path142"
                     inkscape:connector-curvature="0" /></g></g></g><g
               id="g144"><path
                 d="m 377.44815,0 c 0,16.60028 -54.76674,30.05708 -122.32687,30.05708 -67.56012,0 -122.32686,-13.4568 -122.32686,-30.05708 0,-16.60028 54.76674,-30.05708 122.32686,-30.05708 67.56013,0 122.32687,13.4568 122.32687,30.05708 z"
                 style="fill:#ffffff;fill-opacity:1;fill-rule:nonzero;stroke:#000000;stroke-width:0.3985;stroke-linecap:butt;stroke-linejoin:miter;stroke-miterlimit:10;stroke-dasharray:none;stroke-opacity:1"
                 id="path146"
                 inkscape:connector-curvature="0" /></g><g
               id="g148"
               transform="translate(171.942,-2.491)"><g
                 id="g150"><g
                   id="g152"
                   transform="translate(-239.448,-27.765)"><g
                     aria-label="Todoestosedescribeenun"
                     transform="matrix(1,0,0,-1,262.337,39.82)"
                     style="font-variant:normal;font-weight:normal;font-size:9.96259975px;font-family:CMR10;-inkscape-font-specification:CMR10;writing-mode:lr-tb;fill:#000000;fill-opacity:1;fill-rule:nonzero;stroke:none"
                     id="text156"><path
                       d="m 1.6831345,0 v -0.35024765 q 0.5010487,0 0.9729102,-0.05351 0.4718614,-0.0583746 0.4718614,-0.26268574 V -6.1390629 q 0,-0.2140403 -0.1216138,-0.2626858 -0.1167492,-0.05351 -0.3842995,-0.05351 H 2.2036414 q -0.822109,0 -1.1674921,0.3599767 -0.17998838,0.1799884 -0.25782119,0.5788816 -0.0778328,0.3940286 -0.13134287,0.9923683 H 0.35997675 L 0.54969422,-6.8055064 H 6.6352471 l 0.1897175,2.2814743 H 6.5330915 Q 6.4747169,-5.1661528 6.4017487,-5.5407232 6.333645,-5.9201582 6.148792,-6.095282 5.7985444,-6.4552587 4.9812999,-6.4552587 H 4.5629485 q -0.1799884,0 -0.2821439,0.014594 -0.097291,0.014594 -0.1605302,0.087562 -0.063239,0.068104 -0.063239,0.2140403 v 5.47261946 q 0,0.20431113 0.4718614,0.26268574 0.4718614,0.05351 0.9680455,0.05351 V 0 Z"
                       style=""
                       id="path181" /><path
                       d="m 8.8587439,0.11188467 q -0.5983397,0 -1.1091175,-0.30160215 Q 7.2388485,-0.49618417 6.9421109,-1.006962 6.6453734,-1.5177398 6.6453734,-2.1209441 q 0,-0.4572678 0.1605301,-0.8804837 0.1653947,-0.4232159 0.4669969,-0.7540053 0.3064667,-0.335654 0.7102244,-0.5205069 0.4037577,-0.1897175 0.8756191,-0.1897175 0.6129334,0 1.1139821,0.3259249 0.505913,0.3210603 0.797786,0.86589 0.291873,0.5399651 0.291873,1.1528985 0,0.5983397 -0.296737,1.1139821 -0.296738,0.51077783 -0.8075156,0.81724452 -0.5059133,0.30160215 -1.0993885,0.30160215 z m 0,-0.29187304 q 0.7977863,0 1.0653366,-0.57888153 0.2675505,-0.5788815 0.2675505,-1.4739589 0,-0.5010487 -0.05351,-0.8269736 Q 10.084611,-3.3905918 9.9046223,-3.6581421 9.7927376,-3.8235368 9.6176138,-3.9451506 9.4473545,-4.0716289 9.2527725,-4.1348681 9.063055,-4.2029718 8.8587439,-4.2029718 q -0.3113312,0 -0.5934752,0.141072 -0.2772794,0.141072 -0.4621323,0.4037577 -0.1848529,0.2821439 -0.238363,0.6226625 -0.048646,0.335654 -0.048646,0.8026508 0,0.5594234 0.097291,1.006962 0.097291,0.44267414 0.3891641,0.74427628 0.2967376,0.30160215 0.8561609,0.30160215 z"
                       style=""
                       id="path183" /><path
                       d="m 14.05066,0.11188467 q -0.588611,0 -1.075066,-0.3161958 -0.486455,-0.32106034 -0.75887,-0.84156727 -0.26755,-0.5205069 -0.26755,-1.104253 0,-0.6032043 0.291873,-1.1188466 0.296737,-0.520507 0.802651,-0.8269737 0.505913,-0.3064666 1.113982,-0.3064666 0.364841,0 0.690766,0.1556656 0.325925,0.150801 0.564288,0.4232159 v -2.0722986 q 0,-0.2675503 -0.0827,-0.3842995 -0.07783,-0.1216138 -0.228634,-0.1459365 -0.145937,-0.029187 -0.462133,-0.029187 v -0.3502477 l 1.473959,-0.1070201 v 6.00772008 q 0,0.26268573 0.07783,0.3842995 0.0827,0.11674922 0.228634,0.14593652 0.150801,0.0243228 0.466997,0.0243228 V 0 l -1.503146,0.11188467 v -0.62752704 q -0.257822,0.29673759 -0.612934,0.46213231 -0.355112,0.16539473 -0.719953,0.16539473 z m -1.016691,-0.97777469 q 0.170259,0.3259249 0.452403,0.52050692 0.287008,0.19458203 0.622662,0.19458203 0.413487,0 0.75887,-0.23836298 0.345383,-0.23836299 0.515643,-0.61779795 v -2.3884944 q -0.11675,-0.2189047 -0.296738,-0.389164 -0.175124,-0.1751238 -0.398893,-0.2675503 -0.218905,-0.092427 -0.466997,-0.092427 -0.520507,0 -0.836703,0.2967376 -0.316196,0.2918731 -0.442674,0.7491408 -0.126478,0.4572678 -0.126478,0.9583165 0,0.3988932 0.03892,0.6956308 0.04378,0.2967375 0.179989,0.57888148 z"
                       style=""
                       id="path185" /><path
                       d="m 19.644254,0.11188467 q -0.598339,0 -1.109117,-0.30160215 -0.510778,-0.30646669 -0.807516,-0.81724452 -0.296737,-0.5107778 -0.296737,-1.1139821 0,-0.4572678 0.16053,-0.8804837 0.165395,-0.4232159 0.466997,-0.7540053 0.306467,-0.335654 0.710224,-0.5205069 0.403758,-0.1897175 0.875619,-0.1897175 0.612934,0 1.113983,0.3259249 0.505913,0.3210603 0.797786,0.86589 0.291873,0.5399651 0.291873,1.1528985 0,0.5983397 -0.296738,1.1139821 -0.296737,0.51077783 -0.807515,0.81724452 -0.505913,0.30160215 -1.099389,0.30160215 z m 0,-0.29187304 q 0.797787,0 1.065337,-0.57888153 0.26755,-0.5788815 0.26755,-1.4739589 0,-0.5010487 -0.05351,-0.8269736 -0.05351,-0.3307894 -0.233498,-0.5983397 -0.111885,-0.1653947 -0.287009,-0.2870085 -0.170259,-0.1264783 -0.364841,-0.1897175 -0.189717,-0.068104 -0.394029,-0.068104 -0.311331,0 -0.593475,0.141072 -0.277279,0.141072 -0.462132,0.4037577 -0.184853,0.2821439 -0.238363,0.6226625 -0.04865,0.335654 -0.04865,0.8026508 0,0.5594234 0.09729,1.006962 0.09729,0.44267414 0.389165,0.74427628 0.296737,0.30160215 0.85616,0.30160215 z"
                       style=""
                       id="path187" /><path
                       d="m 27.943335,0.11188467 q -0.608069,0 -1.118847,-0.3161958 -0.505913,-0.32106034 -0.797786,-0.85129637 -0.287009,-0.5351006 -0.287009,-1.1285757 0,-0.5837461 0.262686,-1.1091176 0.26755,-0.5253715 0.739412,-0.8464318 0.476726,-0.3259249 1.060472,-0.3259249 0.457267,0 0.792921,0.1556656 0.340519,0.1508011 0.559424,0.4232159 0.218905,0.2724149 0.330789,0.6421207 0.111885,0.3697059 0.111885,0.81238 0,0.1313428 -0.102156,0.1313428 h -2.884678 v 0.1070202 q 0,0.8269736 0.330789,1.42044874 0.335654,0.59347519 1.08966,0.59347519 0.306466,0 0.564287,-0.13620742 0.262686,-0.13620742 0.452404,-0.37943495 0.194582,-0.24322754 0.262685,-0.52050696 0.0097,-0.034052 0.03405,-0.058375 0.02919,-0.029187 0.06324,-0.029187 h 0.08756 q 0.102156,0 0.102156,0.1264783 -0.141072,0.56428792 -0.608069,0.92912922 -0.466997,0.35997675 -1.045878,0.35997675 z M 26.620177,-2.5490245 h 2.271745 q 0,-0.3745704 -0.10702,-0.7588699 -0.102156,-0.3842996 -0.345383,-0.6372562 -0.243228,-0.2578212 -0.637256,-0.2578212 -0.564288,0 -0.875619,0.5302361 -0.306467,0.5253714 -0.306467,1.1237112 z"
                       style=""
                       id="path189" /><path
                       d="m 30.220583,0.0291873 v -1.6247599 q 0,-0.077833 0.08756,-0.077833 h 0.121614 q 0.05837,0 0.07783,0.077833 0.27728,1.44477153 1.342616,1.44477153 0.471862,0 0.788058,-0.21404023 0.32106,-0.21404023 0.32106,-0.6615789 0,-0.3210603 -0.248092,-0.5448297 -0.248092,-0.2286338 -0.588611,-0.3113312 L 31.456179,-2.013924 q -0.335654,-0.072968 -0.612934,-0.2237693 -0.272415,-0.1508011 -0.447538,-0.3988932 -0.175124,-0.2529566 -0.175124,-0.583746 0,-0.4378096 0.228634,-0.715089 0.233498,-0.2821439 0.603204,-0.4037577 0.369706,-0.1264783 0.797786,-0.1264783 0.510778,0 0.890213,0.2724148 l 0.287009,-0.2480921 q 0,-0.024323 0.04865,-0.024323 h 0.07297 q 0.02919,0 0.05351,0.029187 0.02432,0.024323 0.02432,0.05351 v 1.3036995 q 0,0.092427 -0.07783,0.092427 h -0.121613 q -0.08756,0 -0.08756,-0.092427 0,-0.5205069 -0.291873,-0.8367027 -0.287009,-0.3161958 -0.807516,-0.3161958 -0.447538,0 -0.778328,0.1653947 -0.325925,0.1653948 -0.325925,0.5691525 0,0.2772794 0.233499,0.4572677 0.238363,0.1751239 0.554558,0.2529567 l 0.676173,0.1264783 q 0.340519,0.077833 0.632392,0.2626857 0.296737,0.1848529 0.466996,0.4669969 0.175124,0.2821439 0.175124,0.6372561 0,0.35997677 -0.126478,0.62752706 -0.121614,0.26268574 -0.345383,0.43780956 -0.218905,0.17512382 -0.520507,0.25782118 -0.301602,0.08269737 -0.632392,0.08269737 -0.622662,0 -1.065336,-0.41835136 l -0.364842,0.3940286 q 0,0.02432276 -0.05351,0.02432276 h -0.05837 q -0.08756,0 -0.08756,-0.08269737 z"
                       style=""
                       id="path191" /><path
                       d="M 34.835733,-1.1966795 V -3.9451506 H 34.00876 v -0.2578212 q 0.651849,0 0.958316,-0.6080688 0.306467,-0.6080688 0.306467,-1.3182932 h 0.287008 v 1.8339356 h 1.405855 v 0.3502476 h -1.405855 v 2.7290129 q 0,0.41348684 0.136208,0.72481808 0.141072,0.31133125 0.501048,0.31133125 0.340519,0 0.49132,-0.3259249 0.150801,-0.33078944 0.150801,-0.71022443 v -0.5886106 h 0.287009 v 0.6080688 q 0,0.31133128 -0.11675,0.61779797 -0.111884,0.30160214 -0.335654,0.49618417 -0.223769,0.19458203 -0.544829,0.19458203 -0.59834,0 -0.948588,-0.3551122 -0.345383,-0.35997675 -0.345383,-0.95345197 z"
                       style=""
                       id="path193" /><path
                       d="m 40.184147,0.11188467 q -0.59834,0 -1.109118,-0.30160215 -0.510778,-0.30646669 -0.807515,-0.81724452 -0.296738,-0.5107778 -0.296738,-1.1139821 0,-0.4572678 0.16053,-0.8804837 0.165395,-0.4232159 0.466997,-0.7540053 0.306467,-0.335654 0.710225,-0.5205069 0.403757,-0.1897175 0.875619,-0.1897175 0.612933,0 1.113982,0.3259249 0.505913,0.3210603 0.797786,0.86589 0.291873,0.5399651 0.291873,1.1528985 0,0.5983397 -0.296737,1.1139821 -0.296738,0.51077783 -0.807516,0.81724452 -0.505913,0.30160215 -1.099388,0.30160215 z m 0,-0.29187304 q 0.797786,0 1.065336,-0.57888153 0.267551,-0.5788815 0.267551,-1.4739589 0,-0.5010487 -0.05351,-0.8269736 -0.05351,-0.3307894 -0.233498,-0.5983397 -0.111885,-0.1653947 -0.287008,-0.2870085 -0.17026,-0.1264783 -0.364842,-0.1897175 -0.189717,-0.068104 -0.394028,-0.068104 -0.311332,0 -0.593476,0.141072 -0.277279,0.141072 -0.462132,0.4037577 -0.184853,0.2821439 -0.238363,0.6226625 -0.04864,0.335654 -0.04864,0.8026508 0,0.5594234 0.09729,1.006962 0.09729,0.44267414 0.389164,0.74427628 0.296737,0.30160215 0.856161,0.30160215 z"
                       style=""
                       id="path195" /><path
                       d="m 46.323133,0.0291873 v -1.6247599 q 0,-0.077833 0.08756,-0.077833 h 0.121614 q 0.05838,0 0.07783,0.077833 0.277279,1.44477153 1.342616,1.44477153 0.471861,0 0.788057,-0.21404023 0.32106,-0.21404023 0.32106,-0.6615789 0,-0.3210603 -0.248092,-0.5448297 -0.248092,-0.2286338 -0.58861,-0.3113312 L 47.558729,-2.013924 q -0.335654,-0.072968 -0.612933,-0.2237693 -0.272415,-0.1508011 -0.447539,-0.3988932 -0.175124,-0.2529566 -0.175124,-0.583746 0,-0.4378096 0.228634,-0.715089 0.233499,-0.2821439 0.603205,-0.4037577 0.369705,-0.1264783 0.797786,-0.1264783 0.510778,0 0.890213,0.2724148 l 0.287008,-0.2480921 q 0,-0.024323 0.04865,-0.024323 h 0.07297 q 0.02919,0 0.05351,0.029187 0.02432,0.024323 0.02432,0.05351 v 1.3036995 q 0,0.092427 -0.07783,0.092427 h -0.121614 q -0.08756,0 -0.08756,-0.092427 0,-0.5205069 -0.291873,-0.8367027 -0.287008,-0.3161958 -0.807515,-0.3161958 -0.447539,0 -0.778328,0.1653947 -0.325925,0.1653948 -0.325925,0.5691525 0,0.2772794 0.233498,0.4572677 0.238363,0.1751239 0.554559,0.2529567 l 0.676172,0.1264783 q 0.340519,0.077833 0.632392,0.2626857 0.296738,0.1848529 0.466997,0.4669969 0.175124,0.2821439 0.175124,0.6372561 0,0.35997677 -0.126479,0.62752706 -0.121613,0.26268574 -0.345383,0.43780956 -0.218904,0.17512382 -0.520507,0.25782118 -0.301602,0.08269737 -0.632391,0.08269737 -0.622663,0 -1.065337,-0.41835136 l -0.364841,0.3940286 q 0,0.02432276 -0.05351,0.02432276 h -0.05838 q -0.08756,0 -0.08756,-0.08269737 z"
                       style=""
                       id="path197" /><path
                       d="m 52.402514,0.11188467 q -0.608069,0 -1.118847,-0.3161958 -0.505913,-0.32106034 -0.797786,-0.85129637 -0.287009,-0.5351006 -0.287009,-1.1285757 0,-0.5837461 0.262686,-1.1091176 0.26755,-0.5253715 0.739412,-0.8464318 0.476726,-0.3259249 1.060472,-0.3259249 0.457267,0 0.792921,0.1556656 0.340519,0.1508011 0.559424,0.4232159 0.218904,0.2724149 0.330789,0.6421207 0.111885,0.3697059 0.111885,0.81238 0,0.1313428 -0.102156,0.1313428 h -2.884678 v 0.1070202 q 0,0.8269736 0.330789,1.42044874 0.335654,0.59347519 1.089659,0.59347519 0.306467,0 0.564288,-0.13620742 0.262686,-0.13620742 0.452404,-0.37943495 0.194582,-0.24322754 0.262685,-0.52050696 0.0097,-0.034052 0.03405,-0.058375 0.02919,-0.029187 0.06324,-0.029187 h 0.08756 q 0.102156,0 0.102156,0.1264783 -0.141072,0.56428792 -0.608069,0.92912922 -0.466997,0.35997675 -1.045878,0.35997675 z M 51.079356,-2.5490245 h 2.271745 q 0,-0.3745704 -0.10702,-0.7588699 -0.102156,-0.3842996 -0.345383,-0.6372562 -0.243228,-0.2578212 -0.637256,-0.2578212 -0.564288,0 -0.87562,0.5302361 -0.306466,0.5253714 -0.306466,1.1237112 z"
                       style=""
                       id="path199" /><path
                       d="m 60.108755,0.11188467 q -0.588611,0 -1.075066,-0.3161958 -0.486455,-0.32106034 -0.75887,-0.84156727 -0.26755,-0.5205069 -0.26755,-1.104253 0,-0.6032043 0.291873,-1.1188466 0.296737,-0.520507 0.802651,-0.8269737 0.505913,-0.3064666 1.113982,-0.3064666 0.364841,0 0.690766,0.1556656 0.325925,0.150801 0.564288,0.4232159 v -2.0722986 q 0,-0.2675503 -0.0827,-0.3842995 -0.07783,-0.1216138 -0.228633,-0.1459365 -0.145937,-0.029187 -0.462133,-0.029187 v -0.3502477 l 1.473959,-0.1070201 v 6.00772008 q 0,0.26268573 0.07783,0.3842995 0.0827,0.11674922 0.228634,0.14593652 0.150801,0.0243228 0.466997,0.0243228 V 0 l -1.503146,0.11188467 v -0.62752704 q -0.257822,0.29673759 -0.612934,0.46213231 -0.355112,0.16539473 -0.719953,0.16539473 z m -1.016691,-0.97777469 q 0.170259,0.3259249 0.452403,0.52050692 0.287008,0.19458203 0.622662,0.19458203 0.413487,0 0.75887,-0.23836298 0.345383,-0.23836299 0.515643,-0.61779795 v -2.3884944 q -0.11675,-0.2189047 -0.296738,-0.389164 -0.175124,-0.1751238 -0.398893,-0.2675503 -0.218905,-0.092427 -0.466997,-0.092427 -0.520507,0 -0.836703,0.2967376 -0.316196,0.2918731 -0.442674,0.7491408 -0.126478,0.4572678 -0.126478,0.9583165 0,0.3988932 0.03892,0.6956308 0.04378,0.2967375 0.179989,0.57888148 z"
                       style=""
                       id="path201" /><path
                       d="m 65.692621,0.11188467 q -0.608069,0 -1.118846,-0.3161958 -0.505914,-0.32106034 -0.797787,-0.85129637 -0.287008,-0.5351006 -0.287008,-1.1285757 0,-0.5837461 0.262686,-1.1091176 0.26755,-0.5253715 0.739411,-0.8464318 0.476726,-0.3259249 1.060472,-0.3259249 0.457268,0 0.792922,0.1556656 0.340519,0.1508011 0.559423,0.4232159 0.218905,0.2724149 0.33079,0.6421207 0.111885,0.3697059 0.111885,0.81238 0,0.1313428 -0.102156,0.1313428 h -2.884679 v 0.1070202 q 0,0.8269736 0.33079,1.42044874 0.335654,0.59347519 1.089659,0.59347519 0.306467,0 0.564288,-0.13620742 0.262686,-0.13620742 0.452403,-0.37943495 0.194582,-0.24322754 0.262686,-0.52050696 0.0097,-0.034052 0.03405,-0.058375 0.02919,-0.029187 0.06324,-0.029187 h 0.08756 q 0.102156,0 0.102156,0.1264783 -0.141072,0.56428792 -0.608069,0.92912922 -0.466997,0.35997675 -1.045879,0.35997675 z M 64.369463,-2.5490245 h 2.271746 q 0,-0.3745704 -0.10702,-0.7588699 -0.102156,-0.3842996 -0.345384,-0.6372562 -0.243227,-0.2578212 -0.637256,-0.2578212 -0.564288,0 -0.875619,0.5302361 -0.306467,0.5253714 -0.306467,1.1237112 z"
                       style=""
                       id="path203" /><path
                       d="m 67.969873,0.0291873 v -1.6247599 q 0,-0.077833 0.08756,-0.077833 h 0.121614 q 0.05837,0 0.07783,0.077833 0.277279,1.44477153 1.342616,1.44477153 0.471861,0 0.788057,-0.21404023 0.32106,-0.21404023 0.32106,-0.6615789 0,-0.3210603 -0.248092,-0.5448297 -0.248092,-0.2286338 -0.58861,-0.3113312 L 69.205469,-2.013924 q -0.335654,-0.072968 -0.612933,-0.2237693 -0.272415,-0.1508011 -0.447539,-0.3988932 -0.175124,-0.2529566 -0.175124,-0.583746 0,-0.4378096 0.228634,-0.715089 0.233499,-0.2821439 0.603204,-0.4037577 0.369706,-0.1264783 0.797787,-0.1264783 0.510778,0 0.890213,0.2724148 l 0.287008,-0.2480921 q 0,-0.024323 0.04865,-0.024323 h 0.07297 q 0.02919,0 0.05351,0.029187 0.02432,0.024323 0.02432,0.05351 v 1.3036995 q 0,0.092427 -0.07783,0.092427 h -0.121614 q -0.08756,0 -0.08756,-0.092427 0,-0.5205069 -0.291873,-0.8367027 -0.287008,-0.3161958 -0.807515,-0.3161958 -0.447539,0 -0.778328,0.1653947 -0.325925,0.1653948 -0.325925,0.5691525 0,0.2772794 0.233498,0.4572677 0.238363,0.1751239 0.554559,0.2529567 l 0.676172,0.1264783 q 0.340519,0.077833 0.632392,0.2626857 0.296738,0.1848529 0.466997,0.4669969 0.175124,0.2821439 0.175124,0.6372561 0,0.35997677 -0.126479,0.62752706 -0.121613,0.26268574 -0.345383,0.43780956 -0.218904,0.17512382 -0.520507,0.25782118 -0.301602,0.08269737 -0.632391,0.08269737 -0.622663,0 -1.065337,-0.41835136 l -0.364841,0.3940286 q 0,0.02432276 -0.05351,0.02432276 h -0.05837 q -0.08756,0 -0.08756,-0.08269737 z"
                       style=""
                       id="path205" /><path
                       d="m 74.04925,0.11188467 q -0.603205,0 -1.094524,-0.31133125 -0.49132,-0.31619579 -0.773464,-0.83670272 -0.282144,-0.5253715 -0.282144,-1.1139821 0,-0.5886106 0.27728,-1.1285757 0.282144,-0.5399652 0.773463,-0.8610255 0.496184,-0.3259249 1.099389,-0.3259249 0.583746,0 1.060472,0.2286339 0.48159,0.2286339 0.48159,0.7491408 0,0.194582 -0.141072,0.3405185 -0.136207,0.141072 -0.335654,0.141072 -0.199446,0 -0.340518,-0.141072 -0.136208,-0.1459365 -0.136208,-0.3405185 0,-0.1751238 0.111885,-0.3016022 0.111885,-0.1313428 0.277279,-0.1653947 -0.345383,-0.2189048 -0.968045,-0.2189048 -0.476726,0 -0.768599,0.3161958 -0.291873,0.3161958 -0.408622,0.7831927 -0.11675,0.4669968 -0.11675,0.9242646 0,0.4815905 0.141072,0.9339937 0.145937,0.4475387 0.462133,0.74427629 0.32106,0.29187304 0.80265,0.29187304 0.471862,0 0.802651,-0.28700849 0.33079,-0.29187304 0.452404,-0.75886994 0,-0.058375 0.07783,-0.058375 h 0.121614 q 0.02919,0 0.05351,0.029187 0.02432,0.024323 0.02432,0.058375 v 0.029187 q -0.150801,0.58861067 -0.59834,0.93399377 -0.447538,0.3453831 -1.055607,0.3453831 z"
                       style=""
                       id="path207" /><path
                       d="m 76.253533,0 v -0.35024765 q 0.340519,0 0.559424,-0.05351 0.218905,-0.0535101 0.218905,-0.26268574 V -3.3857273 q 0,-0.2675502 -0.0827,-0.3842995 -0.07783,-0.1216137 -0.228634,-0.1459365 -0.150801,-0.029187 -0.466997,-0.029187 v -0.3502476 l 1.425314,-0.1070201 v 0.9729101 q 0.16053,-0.432945 0.457268,-0.7004953 0.296737,-0.2724148 0.719953,-0.2724148 0.296738,0 0.530236,0.1751238 0.233499,0.1751238 0.233499,0.4621323 0,0.1799884 -0.131343,0.3161958 -0.126479,0.1313428 -0.316196,0.1313428 -0.184853,0 -0.316196,-0.1313428 -0.131343,-0.1313429 -0.131343,-0.3161958 0,-0.2675503 0.189718,-0.379435 h -0.05838 q -0.403758,0 -0.661579,0.2918731 -0.252956,0.291873 -0.359977,0.724818 -0.10702,0.432945 -0.10702,0.8269736 v 1.63448906 q 0,0.31619579 0.968046,0.31619579 V 0 Z"
                       style=""
                       id="path209" /><path
                       d="m 80.204523,0 v -0.35024765 q 0.340518,0 0.559423,-0.05351 0.218905,-0.0535101 0.218905,-0.26268574 V -3.3857273 q 0,-0.3842995 -0.150801,-0.4718614 -0.145937,-0.087562 -0.583746,-0.087562 v -0.3502476 l 1.435042,-0.1070201 v 3.73597486 q 0,0.20917568 0.189718,0.26268574 0.189717,0.05351 0.505913,0.05351 V 0 Z m 0.423216,-6.1147402 q 0,-0.2189048 0.165394,-0.3842995 0.165395,-0.1653947 0.379435,-0.1653947 0.141072,0 0.272415,0.072968 0.131343,0.072968 0.204311,0.2043111 0.07297,0.1313428 0.07297,0.2724148 0,0.2140402 -0.165395,0.379435 -0.165395,0.1653947 -0.3843,0.1653947 -0.21404,0 -0.379435,-0.1653947 -0.165394,-0.1653948 -0.165394,-0.379435 z"
                       style=""
                       id="path211" /><path
                       d="m 83.701822,0 v -5.8958354 q 0,-0.2675503 -0.0827,-0.3842995 -0.07783,-0.1216138 -0.228634,-0.1459365 -0.150801,-0.029187 -0.466997,-0.029187 v -0.3502477 l 1.473959,-0.1070201 v 3.118177 q 0.165395,-0.1848529 0.3843,-0.3210604 0.223769,-0.1410719 0.476726,-0.2140402 0.252956,-0.072968 0.515642,-0.072968 0.447539,0 0.826974,0.1799883 0.384299,0.1799884 0.666443,0.4961842 0.282144,0.3161958 0.43781,0.7296826 0.16053,0.4086222 0.16053,0.8464318 0,0.6032043 -0.296738,1.1237112 -0.291873,0.52050693 -0.80265,0.83183817 -0.505914,0.3064667 -1.113983,0.3064667 -0.379435,0 -0.734547,-0.19458203 -0.355112,-0.19458203 -0.58861,-0.51564237 L 83.98883,0 Z m 0.724818,-0.97777468 q 0.165394,0.3648413 0.476726,0.59833973 0.311331,0.22863388 0.690766,0.22863388 0.515642,0 0.831838,-0.29673759 0.32106,-0.29673759 0.447539,-0.74914084 0.126478,-0.4524032 0.126478,-0.9534519 0,-0.8415673 -0.218905,-1.2793768 -0.09729,-0.194582 -0.26755,-0.3599768 -0.165395,-0.1653947 -0.374571,-0.2578212 -0.204311,-0.097291 -0.432945,-0.097291 -0.398893,0 -0.739411,0.2140403 -0.340519,0.2091756 -0.539965,0.5642878 z"
                       style=""
                       id="path213" /><path
                       d="m 90.9508,0.11188467 q -0.608069,0 -1.118847,-0.3161958 -0.505913,-0.32106034 -0.797786,-0.85129637 -0.287008,-0.5351006 -0.287008,-1.1285757 0,-0.5837461 0.262685,-1.1091176 0.267551,-0.5253715 0.739412,-0.8464318 0.476726,-0.3259249 1.060472,-0.3259249 0.457268,0 0.792922,0.1556656 0.340518,0.1508011 0.559423,0.4232159 0.218905,0.2724149 0.33079,0.6421207 0.111884,0.3697059 0.111884,0.81238 0,0.1313428 -0.102155,0.1313428 h -2.884679 v 0.1070202 q 0,0.8269736 0.33079,1.42044874 0.335654,0.59347519 1.089659,0.59347519 0.306467,0 0.564288,-0.13620742 0.262686,-0.13620742 0.452403,-0.37943495 0.194582,-0.24322754 0.262686,-0.52050696 0.0097,-0.034052 0.03405,-0.058375 0.02919,-0.029187 0.06324,-0.029187 h 0.08756 q 0.102155,0 0.102155,0.1264783 -0.141072,0.56428792 -0.608069,0.92912922 Q 91.529682,0.11188467 90.9508,0.11188467 Z M 89.627642,-2.5490245 h 2.271745 q 0,-0.3745704 -0.10702,-0.7588699 -0.102155,-0.3842996 -0.345383,-0.6372562 -0.243227,-0.2578212 -0.637256,-0.2578212 -0.564288,0 -0.875619,0.5302361 -0.306467,0.5253714 -0.306467,1.1237112 z"
                       style=""
                       id="path215" /><path
                       d="m 98.70569,0.11188467 q -0.608068,0 -1.118846,-0.3161958 -0.505913,-0.32106034 -0.797787,-0.85129637 -0.287008,-0.5351006 -0.287008,-1.1285757 0,-0.5837461 0.262686,-1.1091176 0.26755,-0.5253715 0.739411,-0.8464318 0.476726,-0.3259249 1.060472,-0.3259249 0.457268,0 0.792922,0.1556656 0.340519,0.1508011 0.559424,0.4232159 0.218906,0.2724149 0.330786,0.6421207 0.11189,0.3697059 0.11189,0.81238 0,0.1313428 -0.10216,0.1313428 h -2.884676 v 0.1070202 q 0,0.8269736 0.330789,1.42044874 0.335654,0.59347519 1.089659,0.59347519 0.306467,0 0.564288,-0.13620742 0.262686,-0.13620742 0.452403,-0.37943495 0.194587,-0.24322754 0.262687,-0.52050696 0.01,-0.034052 0.034,-0.058375 0.0292,-0.029187 0.0632,-0.029187 h 0.0876 q 0.10216,0 0.10216,0.1264783 -0.14107,0.56428792 -0.608071,0.92912922 -0.466997,0.35997675 -1.045879,0.35997675 z M 97.382533,-2.5490245 h 2.271745 q 0,-0.3745704 -0.10702,-0.7588699 -0.102156,-0.3842996 -0.345383,-0.6372562 -0.243228,-0.2578212 -0.637257,-0.2578212 -0.564287,0 -0.875619,0.5302361 -0.306466,0.5253714 -0.306466,1.1237112 z"
                       style=""
                       id="path217" /><path
                       d="m 100.94889,0 v -0.35024765 q 0.34052,0 0.55942,-0.05351 0.21891,-0.0535101 0.21891,-0.26268574 V -3.3857273 q 0,-0.2675502 -0.0827,-0.3842995 -0.0778,-0.1216137 -0.22863,-0.1459365 -0.1508,-0.029187 -0.467,-0.029187 v -0.3502476 l 1.44477,-0.1070201 v 0.9729101 q 0.19945,-0.4280805 0.58861,-0.7004953 0.39403,-0.2724148 0.85616,-0.2724148 0.69077,0 1.03615,0.3307894 0.35025,0.3307894 0.35025,1.0118265 v 2.39335896 q 0,0.20917568 0.21891,0.26268574 0.2189,0.05351 0.55942,0.05351 V 0 h -2.28148 v -0.35024765 q 0.34052,0 0.55943,-0.05351 0.2189,-0.0535101 0.2189,-0.26268574 V -3.0306151 q 0,-0.486455 -0.14107,-0.7977863 -0.14107,-0.3161958 -0.57888,-0.3161958 -0.57888,0 -0.95345,0.4621323 -0.36971,0.4621324 -0.36971,1.050743 v 1.96527846 q 0,0.20917568 0.21891,0.26268574 0.2189,0.05351 0.55455,0.05351 V 0 Z"
                       style=""
                       id="path219" /><path
                       d="m 110.57998,-1.1869504 v -2.1987769 q 0,-0.2675502 -0.0827,-0.3842995 -0.0778,-0.1216137 -0.22863,-0.1459365 -0.1508,-0.029187 -0.467,-0.029187 v -0.3502476 l 1.50801,-0.1070201 v 3.2154679 q 0,0.38916409 0.0535,0.60806887 0.0584,0.21404023 0.23836,0.32106034 0.18486,0.10702012 0.58375,0.10702012 0.5351,0 0.8513,-0.44753866 0.31619,-0.44753867 0.31619,-1.01669107 v -1.7706965 q 0,-0.2675502 -0.0827,-0.3842995 -0.0827,-0.1216137 -0.2335,-0.1459365 -0.14594,-0.029187 -0.46214,-0.029187 v -0.3502476 l 1.50315,-0.1070201 v 3.49761188 q 0,0.26268573 0.0778,0.3842995 0.0827,0.11674922 0.2335,0.14593652 0.1508,0.0243228 0.467,0.0243228 V 0 l -1.47396,0.11188467 V -0.7296826 q -0.18485,0.3745704 -0.51564,0.60806883 -0.33079,0.23349844 -0.72968,0.23349844 -0.71509,0 -1.13831,-0.30160215 -0.41835,-0.30646669 -0.41835,-0.99723292 z"
                       style=""
                       id="path221" /><path
                       d="m 115.33688,0 v -0.35024765 q 0.34051,0 0.55942,-0.05351 0.2189,-0.0535101 0.2189,-0.26268574 V -3.3857273 q 0,-0.2675502 -0.0827,-0.3842995 -0.0778,-0.1216137 -0.22864,-0.1459365 -0.1508,-0.029187 -0.46699,-0.029187 v -0.3502476 l 1.44477,-0.1070201 v 0.9729101 q 0.19944,-0.4280805 0.58861,-0.7004953 0.39403,-0.2724148 0.85616,-0.2724148 0.69077,0 1.03615,0.3307894 0.35025,0.3307894 0.35025,1.0118265 v 2.39335896 q 0,0.20917568 0.2189,0.26268574 0.21891,0.05351 0.55942,0.05351 V 0 h -2.28147 v -0.35024765 q 0.34052,0 0.55942,-0.05351 0.21891,-0.0535101 0.21891,-0.26268574 V -3.0306151 q 0,-0.486455 -0.14107,-0.7977863 -0.14108,-0.3161958 -0.57889,-0.3161958 -0.57888,0 -0.95345,0.4621323 -0.3697,0.4621324 -0.3697,1.050743 v 1.96527846 q 0,0.20917568 0.2189,0.26268574 0.21891,0.05351 0.55456,0.05351 V 0 Z"
                       style=""
                       id="path223" /></g><g
                     aria-label="ArchivoURDF"
                     transform="matrix(1,0,0,-1,284.435,27.865)"
                     style="font-variant:normal;font-weight:normal;font-size:9.96259975px;font-family:CMBX10;-inkscape-font-specification:CMBX10;writing-mode:lr-tb;fill:#000000;fill-opacity:1;fill-rule:nonzero;stroke:none"
                     id="text160"><path
                       d="M 3.4051855,-6.2947286 2.0722986,-2.6803674 H 4.7429369 Z M 2.8506267,-7.2627741 H 3.9646088 L 6.7325381,0 H 5.7109825 L 5.0494036,-1.8631229 H 1.775561 L 1.1139821,0 H 0.07783281 Z"
                       style=""
                       id="path226" /><path
                       d="m 12.757436,-4.611594 q -0.150801,-0.087562 -0.330789,-0.1264783 -0.175124,-0.043781 -0.389164,-0.043781 -0.75887,0 -1.167492,0.4961842 -0.403758,0.4913196 -0.403758,1.4155842 V 0 H 9.5662911 v -5.4482967 h 0.8999419 v 0.8464318 q 0.282144,-0.4961842 0.734547,-0.7345472 0.452403,-0.2432275 1.099389,-0.2432275 0.09243,0 0.204311,0.014594 0.111884,0.00973 0.248092,0.034052 z"
                       style=""
                       id="path228" /><path
                       d="m 18.239458,-5.2391211 v 0.8367028 q -0.379435,-0.2091757 -0.763734,-0.3113313 -0.379435,-0.1070201 -0.768599,-0.1070201 -0.870755,0 -1.352345,0.5545588 -0.481591,0.5496942 -0.481591,1.5469271 0,0.9972329 0.481591,1.5517916 0.48159,0.54969427 1.352345,0.54969427 0.389164,0 0.768599,-0.10215557 0.384299,-0.10702011 0.763734,-0.3161958 v 0.82697362 q -0.37457,0.17512383 -0.778328,0.26268574 -0.398893,0.08756191 -0.851296,0.08756191 -1.230731,0 -1.95555,-0.77346356 -0.724818,-0.77346351 -0.724818,-2.08689221 0,-1.3328869 0.729683,-2.0966214 0.734547,-0.7637344 2.009059,-0.7637344 0.413487,0 0.807516,0.087562 0.394028,0.082697 0.763734,0.2529566 z"
                       style=""
                       id="path230" /><path
                       d="M 23.620608,-3.2884362 V 0 h -0.895077 v -3.2592489 q 0,-0.7734636 -0.301603,-1.1577631 -0.301602,-0.3842995 -0.904806,-0.3842995 -0.724818,0 -1.143169,0.4621323 -0.418352,0.4621323 -0.418352,1.2599186 V 0 h -0.899942 v -7.5692408 h 0.899942 v 2.9673759 q 0.321061,-0.4913196 0.754006,-0.7345472 0.437809,-0.2432275 1.006962,-0.2432275 0.938858,0 1.420448,0.5837461 0.481591,0.5788815 0.481591,1.7074573 z"
                       style=""
                       id="path232" /><path
                       d="m 25.456816,-5.4482967 h 0.895077 V 0 h -0.895077 z m 0,-2.1209441 h 0.895077 v 1.1334403 h -0.895077 z"
                       style=""
                       id="path234" /><path
                       d="m 27.99675,-5.4482967 h 0.948587 l 1.702593,4.57267758 1.702593,-4.57267758 H 33.29911 L 31.255999,0 h -1.216138 z"
                       style=""
                       id="path236" /><path
                       d="m 36.477586,-4.8207697 q -0.719953,0 -1.138304,0.5642879 -0.418352,0.5594233 -0.418352,1.537198 0,0.9777747 0.413487,1.5420625 0.418351,0.55942337 1.143169,0.55942337 0.715089,0 1.133441,-0.56428787 0.418351,-0.5642879 0.418351,-1.537198 0,-0.9680456 -0.418351,-1.5323335 -0.418352,-0.5691524 -1.133441,-0.5691524 z m 0,-0.7588699 q 1.167493,0 1.833936,0.7588699 0.666443,0.7588699 0.666443,2.1014859 0,1.3377514 -0.666443,2.10148587 -0.666443,0.7588699 -1.833936,0.7588699 -1.172356,0 -1.8388,-0.7588699 -0.661579,-0.76373447 -0.661579,-2.10148587 0,-1.342616 0.661579,-2.1014859 0.666444,-0.7588699 1.8388,-0.7588699 z"
                       style=""
                       id="path238" /><path
                       d="m 43.847534,-7.2627741 h 0.987503 v 4.4121474 q 0,1.1674922 0.423216,1.6831345 0.423216,0.51077786 1.371804,0.51077786 0.943723,0 1.366938,-0.51077786 0.423216,-0.5156423 0.423216,-1.6831345 v -4.4121474 h 0.987504 v 4.5337612 q 0,1.4204488 -0.70536,2.14526682 -0.700495,0.72481805 -2.072298,0.72481805 -1.376668,0 -2.082028,-0.72481805 -0.700495,-0.72481802 -0.700495,-2.14526682 z"
                       style=""
                       id="path240" /><path
                       d="m 56.217435,-3.4051855 q 0.316196,0.1070202 0.612934,0.4572678 0.301602,0.3502476 0.603204,0.963181 L 58.430806,0 h -1.055607 l -0.92913,-1.8631229 q -0.359976,-0.7296826 -0.700495,-0.9680456 -0.335654,-0.238363 -0.9194,-0.238363 H 53.755973 V 0 h -0.982639 v -7.2627741 h 2.218235 q 1.245325,0 1.858258,0.5205069 0.612933,0.5205069 0.612933,1.5712498 0,0.6859017 -0.32106,1.1383049 -0.316196,0.4524032 -0.924265,0.627527 z m -2.461462,-3.0500732 v 2.5782118 h 1.235596 q 0.710224,0 1.070201,-0.3259249 0.364841,-0.3307894 0.364841,-0.9680456 0,-0.6372561 -0.364841,-0.9583164 -0.359977,-0.3259249 -1.070201,-0.3259249 z"
                       style=""
                       id="path242" /><path
                       d="m 62.348712,-6.4552587 v 5.64774329 h 1.18695 q 1.503146,0 2.198777,-0.68103709 0.700496,-0.6810371 0.700496,-2.1501314 0,-1.4593652 -0.700496,-2.1355377 -0.695631,-0.6810371 -2.198777,-0.6810371 z m -0.982639,-0.8075154 h 2.018788 q 2.111215,0 3.098719,0.8804836 0.987504,0.8756192 0.987504,2.7436066 0,1.8777166 -0.992369,2.75820023 Q 65.486347,0 63.384861,0 h -2.018788 z"
                       style=""
                       id="path244" /><path
                       d="m 70.152091,-7.2627741 h 4.173785 v 0.8269736 H 71.13473 v 2.1404023 h 2.879814 v 0.8269736 H 71.13473 V 0 h -0.982639 z"
                       style=""
                       id="path246" /></g><g
                     aria-label="(UniversalRobotDescriptionFormat)"
                     transform="matrix(1,0,0,-1,245.426,15.91)"
                     style="font-variant:normal;font-weight:normal;font-size:8.96640015px;font-family:CMR9;-inkscape-font-specification:CMR9;writing-mode:lr-tb;fill:#000000;fill-opacity:1;fill-rule:nonzero;stroke:none"
                     id="text164"><path
                       d="m 2.7801094,-6.8036064 q -0.5866687,1.0069688 -0.8712469,1.9920469 -0.2845781,0.9850782 -0.2845781,1.9964251 0,1.0113469 0.2845781,2.00518126 0.2889563,0.98945627 0.8712469,1.99204694 h -0.7005 Q 1.4228906,0.15323438 1.0945313,-0.84060001 0.77055001,-1.8344344 0.77055001,-2.8151344 q 0,-0.9763219 0.32398129,-1.9657782 0.3239812,-0.9894562 0.9850781,-2.0226938 z"
                       style=""
                       id="path249" /><path
                       d="m 4.3631764,-6.5365407 h 0.8887594 v 3.9709594 q 0,1.05075 0.3808969,1.5148313 0.3808969,0.45970312 1.2346313,0.45970312 0.8493562,0 1.2302531,-0.45970312 0.3808969,-0.4640813 0.3808969,-1.5148313 v -3.9709594 h 0.8887594 v 4.0804125 q 0,1.2784126 -0.6348281,1.93075319 -0.6304501,0.65234064 -1.8650813,0.65234064 -1.2390094,0 -1.8738376,-0.65234064 -0.63045,-0.65234059 -0.63045,-1.93075319 z"
                       style=""
                       id="path251" /><path
                       d="M 15.415287,-2.9596125 V 0 h -0.805575 v -2.9333438 q 0,-0.6961219 -0.271444,-1.0419938 -0.271444,-0.3458718 -0.814331,-0.3458718 -0.652341,0 -1.02886,0.4159218 -0.376518,0.4159219 -0.376518,1.1339344 V 0 h -0.809954 v -4.9035001 h 0.809954 v 0.7617938 q 0.288956,-0.4421906 0.678609,-0.6610969 0.394031,-0.2189063 0.906272,-0.2189063 0.844978,0 1.278412,0.5253751 0.433435,0.5209968 0.433435,1.5367219 z"
                       style=""
                       id="path253" /><path
                       d="m 16.459067,-4.9035001 h 0.805575 V 0 h -0.805575 z m 0,-1.9088625 h 0.805575 v 1.0201031 h -0.805575 z"
                       style=""
                       id="path255" /><path
                       d="m 18.441062,-4.9035001 h 0.853734 l 1.532344,4.11543759 1.532344,-4.11543759 h 0.853734 L 21.374405,0 h -1.094531 z"
                       style=""
                       id="path257" /><path
                       d="m 27.816568,-2.6531438 v 0.3940313 h -3.703894 q 0.05254,0.8318437 0.499106,1.26965623 0.450947,0.43343439 1.252144,0.43343439 0.464081,0 0.897515,-0.11383126 0.437813,-0.11383125 0.866869,-0.34149376 v 0.76179377 q -0.433434,0.18388125 -0.888759,0.28020001 -0.455325,0.09631875 -0.923785,0.09631875 -1.173337,0 -1.860703,-0.68298751 -0.682987,-0.68298752 -0.682987,-1.84756882 0,-1.2039844 0.647962,-1.9088625 0.652341,-0.7092563 1.755628,-0.7092563 0.989457,0 1.562991,0.6392063 0.577913,0.6348281 0.577913,1.7293594 z m -0.805575,-0.2364187 q -0.0088,-0.6610969 -0.372141,-1.0551282 -0.359006,-0.3940312 -0.954431,-0.3940312 -0.674232,0 -1.081397,0.3808968 -0.402788,0.3808969 -0.464081,1.0726407 z"
                       style=""
                       id="path259" /><path
                       d="m 30.563165,-4.1504626 q -0.135722,-0.078806 -0.297713,-0.1138312 -0.157612,-0.039403 -0.35025,-0.039403 -0.682987,0 -1.05075,0.4465687 -0.363384,0.4421906 -0.363384,1.2740344 V 0 h -0.809953 v -4.9035001 h 0.809953 v 0.7617938 q 0.253931,-0.4465688 0.661097,-0.6610969 0.407165,-0.2189063 0.989456,-0.2189063 0.08318,0 0.183881,0.013134 0.100697,0.00876 0.223285,0.030647 z"
                       style=""
                       id="path261" /><path
                       d="m 34.452237,-4.759022 v 0.7617938 q -0.341494,-0.175125 -0.709256,-0.2626875 -0.367763,-0.087563 -0.761794,-0.087563 -0.599803,0 -0.901894,0.1838813 -0.297712,0.1838812 -0.297712,0.5516437 0,0.2802 0.214528,0.4421906 0.214528,0.1576126 0.86249,0.3020907 l 0.275822,0.061294 q 0.858113,0.1838813 1.217119,0.5209969 0.363384,0.3327375 0.363384,0.9325407 0,0.68298746 -0.542887,1.08139685 -0.538509,0.39840938 -1.484184,0.39840938 -0.394032,0 -0.823088,-0.07880625 -0.424678,-0.07442813 -0.897516,-0.22766251 V -1.0113469 q 0.446569,0.23204064 0.880003,0.35025001 0.433435,0.11383126 0.858113,0.11383126 0.569156,0 0.875625,-0.19263751 0.306469,-0.19701563 0.306469,-0.55164376 0,-0.3283594 -0.223285,-0.5034844 -0.218906,-0.175125 -0.967565,-0.3371156 l -0.2802,-0.065672 q -0.74866,-0.1576125 -1.081397,-0.4815937 -0.332738,-0.3283594 -0.332738,-0.8975157 0,-0.6917437 0.49035,-1.0682625 0.49035,-0.3765188 1.392244,-0.3765188 0.446569,0 0.8406,0.065672 0.394031,0.065672 0.726769,0.1970156 z"
                       style=""
                       id="path263" /><path
                       d="m 37.189701,-2.4648844 q -0.976322,0 -1.352841,0.2232844 -0.376519,0.2232843 -0.376519,0.7617937 0,0.4290563 0.2802,0.68298754 0.284578,0.24955313 0.77055,0.24955313 0.669853,0 1.072641,-0.47283747 0.407165,-0.4772157 0.407165,-1.2652782 v -0.1795031 z m 1.606771,-0.3327375 V 0 h -0.805575 v -0.74428126 q -0.275821,0.44656876 -0.687365,0.66109688 -0.411544,0.21015001 -1.006969,0.21015001 -0.753038,0 -1.199606,-0.42030001 -0.442191,-0.42467813 -0.442191,-1.13393442 0,-0.8274656 0.551644,-1.2477656 0.556022,-0.4203 1.654931,-0.4203 h 1.129556 v -0.078806 q 0,-0.5560219 -0.367762,-0.8581125 -0.363384,-0.3064687 -1.024481,-0.3064687 -0.4203,0 -0.81871,0.1006968 -0.398409,0.1006969 -0.766172,0.3020907 v -0.7442813 q 0.442191,-0.1707469 0.858113,-0.2539313 0.415922,-0.087562 0.809953,-0.087562 1.063884,0 1.589259,0.5516438 0.525375,0.5516438 0.525375,1.6724438 z"
                       style=""
                       id="path265" /><path
                       d="M 39.569065,-6.8123626 H 40.37464 V 0 h -0.805575 z"
                       style=""
                       id="path267" /><path
                       d="m 48.339186,-3.0646876 q 0.284578,0.096319 0.551644,0.4115438 0.271444,0.315225 0.542887,0.8668688 L 50.331233,0 H 49.38118 l -0.836222,-1.6768219 q -0.323981,-0.6567188 -0.63045,-0.8712469 -0.302091,-0.2145281 -0.827466,-0.2145281 H 46.123855 V 0 h -0.884381 v -6.5365407 h 1.996425 q 1.1208,0 1.672443,0.4684594 0.551644,0.4684593 0.551644,1.4141343 0,0.6173157 -0.288956,1.0244813 -0.284578,0.4071656 -0.831844,0.5647781 z M 46.123855,-5.809772 v 2.3204063 h 1.112044 q 0.639206,0 0.963187,-0.2933344 0.328359,-0.2977125 0.328359,-0.8712469 0,-0.5735343 -0.328359,-0.8624906 -0.323981,-0.2933344 -0.963187,-0.2933344 z"
                       style=""
                       id="path269" /><path
                       d="m 53.887636,-4.3387219 q -0.647963,0 -1.024481,0.5078625 -0.376519,0.5034843 -0.376519,1.3834875 0,0.8800031 0.37214,1.3878656 0.376519,0.50348442 1.02886,0.50348442 0.643584,0 1.020103,-0.50786252 0.376519,-0.5078625 0.376519,-1.3834875 0,-0.8712469 -0.376519,-1.3791094 -0.376519,-0.5122406 -1.020103,-0.5122406 z m 0,-0.6829876 q 1.05075,0 1.650553,0.6829876 0.599803,0.6829875 0.599803,1.89135 0,1.2039844 -0.599803,1.89135002 -0.599803,0.68298751 -1.650553,0.68298751 -1.055128,0 -1.654931,-0.68298751 -0.595425,-0.68736562 -0.595425,-1.89135002 0,-1.2083625 0.595425,-1.89135 0.599803,-0.6829876 1.654931,-0.6829876 z"
                       style=""
                       id="path271" /><path
                       d="m 60.115376,-2.4473719 q 0,-0.8887594 -0.367763,-1.3922438 -0.363384,-0.5078625 -1.00259,-0.5078625 -0.639206,0 -1.006969,0.5078625 -0.363384,0.5034844 -0.363384,1.3922438 0,0.8887594 0.363384,1.3966219 0.367763,0.50348437 1.006969,0.50348437 0.639206,0 1.00259,-0.50348437 0.367763,-0.5078625 0.367763,-1.3966219 z M 57.37467,-4.1592188 q 0.253931,-0.4378125 0.639206,-0.6479625 0.389653,-0.2145282 0.928162,-0.2145282 0.893138,0 1.44916,0.7092563 0.5604,0.7092563 0.5604,1.8650813 0,1.155825 -0.5604,1.86508127 -0.556022,0.70925626 -1.44916,0.70925626 -0.538509,0 -0.928162,-0.21015001 Q 57.628601,-0.2977125 57.37467,-0.73552501 V 0 h -0.809953 v -6.8123626 h 0.809953 z"
                       style=""
                       id="path273" /><path
                       d="m 63.866342,-4.3387219 q -0.647962,0 -1.024481,0.5078625 -0.376519,0.5034843 -0.376519,1.3834875 0,0.8800031 0.372141,1.3878656 0.376519,0.50348442 1.028859,0.50348442 0.643585,0 1.020103,-0.50786252 0.376519,-0.5078625 0.376519,-1.3834875 0,-0.8712469 -0.376519,-1.3791094 -0.376518,-0.5122406 -1.020103,-0.5122406 z m 0,-0.6829876 q 1.05075,0 1.650553,0.6829876 0.599803,0.6829875 0.599803,1.89135 0,1.2039844 -0.599803,1.89135002 -0.599803,0.68298751 -1.650553,0.68298751 -1.055128,0 -1.654931,-0.68298751 -0.595425,-0.68736562 -0.595425,-1.89135002 0,-1.2083625 0.595425,-1.89135 0.599803,-0.6829876 1.654931,-0.6829876 z"
                       style=""
                       id="path275" /><path
                       d="m 67.370892,-6.2957439 v 1.3922438 h 1.65931 v 0.6260719 h -1.65931 v 2.6619 q 0,0.5998032 0.161991,0.77055006 0.166369,0.17074688 0.669853,0.17074688 h 0.827466 V 0 H 68.202736 Q 67.270195,0 66.915567,-0.34587188 66.560939,-0.69612189 66.560939,-1.6155282 v -2.6619 h -0.591047 v -0.6260719 h 0.591047 v -1.3922438 z"
                       style=""
                       id="path277" /><path
                       d="m 74.15282,-5.809772 v 5.08300324 h 1.068262 q 1.352841,0 1.978913,-0.61293754 0.63045,-0.6129375 0.63045,-1.9351313 0,-1.3134375 -0.63045,-1.9219969 -0.626072,-0.6129375 -1.978913,-0.6129375 z m -0.884381,-0.7267687 h 1.816921 q 1.900107,0 2.788866,0.7924406 0.888759,0.7880625 0.888759,2.4692625 0,1.6899563 -0.893137,2.48239696 Q 76.97671,0 75.08536,0 h -1.816921 z"
                       style=""
                       id="path279" /><path
                       d="m 84.466285,-2.6531438 v 0.3940313 h -3.703894 q 0.05254,0.8318437 0.499106,1.26965623 0.450947,0.43343439 1.252144,0.43343439 0.464081,0 0.897516,-0.11383126 0.437812,-0.11383125 0.866869,-0.34149376 v 0.76179377 q -0.433435,0.18388125 -0.88876,0.28020001 -0.455325,0.09631875 -0.923784,0.09631875 -1.173338,0 -1.860703,-0.68298751 -0.682988,-0.68298752 -0.682988,-1.84756882 0,-1.2039844 0.647963,-1.9088625 0.65234,-0.7092563 1.755628,-0.7092563 0.989456,0 1.56299,0.6392063 0.577913,0.6348281 0.577913,1.7293594 z M 83.66071,-2.8895625 q -0.0088,-0.6610969 -0.372141,-1.0551282 -0.359006,-0.3940312 -0.954431,-0.3940312 -0.674231,0 -1.081397,0.3808968 -0.402787,0.3808969 -0.464081,1.0726407 z"
                       style=""
                       id="path281" /><path
                       d="m 87.497456,-4.759022 v 0.7617938 q -0.341493,-0.175125 -0.709256,-0.2626875 -0.367762,-0.087563 -0.761794,-0.087563 -0.599803,0 -0.901893,0.1838813 -0.297713,0.1838812 -0.297713,0.5516437 0,0.2802 0.214528,0.4421906 0.214528,0.1576126 0.862491,0.3020907 l 0.275822,0.061294 q 0.858112,0.1838813 1.217118,0.5209969 0.363385,0.3327375 0.363385,0.9325407 0,0.68298746 -0.542888,1.08139685 -0.538509,0.39840938 -1.484184,0.39840938 -0.394031,0 -0.823088,-0.07880625 -0.424678,-0.07442813 -0.897515,-0.22766251 V -1.0113469 q 0.446569,0.23204064 0.880003,0.35025001 0.433434,0.11383126 0.858112,0.11383126 0.569157,0 0.875625,-0.19263751 0.306469,-0.19701563 0.306469,-0.55164376 0,-0.3283594 -0.223284,-0.5034844 -0.218906,-0.175125 -0.967566,-0.3371156 l -0.2802,-0.065672 q -0.748659,-0.1576125 -1.081397,-0.4815937 -0.332737,-0.3283594 -0.332737,-0.8975157 0,-0.6917437 0.49035,-1.0682625 0.49035,-0.3765188 1.392244,-0.3765188 0.446568,0 0.8406,0.065672 0.394031,0.065672 0.726768,0.1970156 z"
                       style=""
                       id="path283" /><path
                       d="m 91.535223,-4.7152407 v 0.7530375 q -0.341494,-0.1882594 -0.687366,-0.2802 -0.341493,-0.096319 -0.691743,-0.096319 -0.783685,0 -1.217119,0.4991062 -0.433434,0.4947281 -0.433434,1.3922438 0,0.8975156 0.433434,1.3966219 0.433434,0.49472812 1.217119,0.49472812 0.35025,0 0.691743,-0.0919406 0.345872,-0.0963187 0.687366,-0.28457813 v 0.74428126 q -0.337116,0.1576125 -0.7005,0.23641876 -0.359006,0.07880625 -0.766172,0.07880625 -1.107665,0 -1.760006,-0.69612189 -0.652341,-0.69612184 -0.652341,-1.87821564 0,-1.1996063 0.656719,-1.8869719 0.661097,-0.6873657 1.808166,-0.6873657 0.37214,0 0.726768,0.078806 0.354629,0.074428 0.687366,0.2276625 z"
                       style=""
                       id="path285" /><path
                       d="m 94.943713,-4.1504626 q -0.135722,-0.078806 -0.297712,-0.1138312 -0.157613,-0.039403 -0.35025,-0.039403 -0.682988,0 -1.05075,0.4465687 -0.363385,0.4421906 -0.363385,1.2740344 V 0 h -0.809953 v -4.9035001 h 0.809953 v 0.7617938 q 0.253932,-0.4465688 0.661097,-0.6610969 0.407166,-0.2189063 0.989456,-0.2189063 0.08319,0 0.183882,0.013134 0.100697,0.00876 0.223284,0.030647 z"
                       style=""
                       id="path287" /><path
                       d="m 95.706802,-4.9035001 h 0.805575 V 0 h -0.805575 z m 0,-1.9088625 h 0.805575 v 1.0201031 h -0.805575 z"
                       style=""
                       id="path289" /><path
                       d="M 99.046014,-0.73552501 V 1.8650813 h -0.809953 v -6.7685814 h 0.809953 v 0.7442813 q 0.253932,-0.4378125 0.639207,-0.6479625 0.389649,-0.2145282 0.928159,-0.2145282 0.89314,0 1.44916,0.7092563 0.5604,0.7092563 0.5604,1.8650813 0,1.155825 -0.5604,1.86508127 -0.55602,0.70925626 -1.44916,0.70925626 -0.53851,0 -0.928159,-0.21015001 -0.385275,-0.21452812 -0.639207,-0.65234063 z m 2.740706,-1.71184689 q 0,-0.8887594 -0.36776,-1.3922438 -0.36339,-0.5078625 -1.00259,-0.5078625 -0.639209,0 -1.006971,0.5078625 -0.363385,0.5034844 -0.363385,1.3922438 0,0.8887594 0.363385,1.3966219 0.367762,0.50348437 1.006971,0.50348437 0.6392,0 1.00259,-0.50348437 0.36776,-0.5078625 0.36776,-1.3966219 z"
                       style=""
                       id="path291" /><path
                       d="m 104.18334,-6.2957439 v 1.3922438 h 1.65931 v 0.6260719 h -1.65931 v 2.6619 q 0,0.5998032 0.16199,0.77055006 0.16637,0.17074688 0.66985,0.17074688 h 0.82747 V 0 h -0.82747 q -0.93254,0 -1.28717,-0.34587188 -0.35462,-0.35025001 -0.35462,-1.26965632 v -2.6619 h -0.59105 v -0.6260719 h 0.59105 v -1.3922438 z"
                       style=""
                       id="path293" /><path
                       d="m 106.97039,-4.9035001 h 0.80558 V 0 h -0.80558 z m 0,-1.9088625 h 0.80558 v 1.0201031 h -0.80558 z"
                       style=""
                       id="path295" /><path
                       d="m 111.4304,-4.3387219 q -0.64796,0 -1.02448,0.5078625 -0.37652,0.5034843 -0.37652,1.3834875 0,0.8800031 0.37214,1.3878656 0.37652,0.50348442 1.02886,0.50348442 0.64359,0 1.02011,-0.50786252 0.37651,-0.5078625 0.37651,-1.3834875 0,-0.8712469 -0.37651,-1.3791094 -0.37652,-0.5122406 -1.02011,-0.5122406 z m 0,-0.6829876 q 1.05075,0 1.65056,0.6829876 0.5998,0.6829875 0.5998,1.89135 0,1.2039844 -0.5998,1.89135002 -0.59981,0.68298751 -1.65056,0.68298751 -1.05513,0 -1.65493,-0.68298751 -0.59542,-0.68736562 -0.59542,-1.89135002 0,-1.2083625 0.59542,-1.89135 0.5998,-0.6829876 1.65493,-0.6829876 z"
                       style=""
                       id="path297" /><path
                       d="M 118.21416,-2.9596125 V 0 h -0.80557 v -2.9333438 q 0,-0.6961219 -0.27144,-1.0419938 -0.27145,-0.3458718 -0.81434,-0.3458718 -0.65234,0 -1.02885,0.4159218 -0.37652,0.4159219 -0.37652,1.1339344 V 0 h -0.80996 v -4.9035001 h 0.80996 v 0.7617938 q 0.28895,-0.4421906 0.67861,-0.6610969 0.39403,-0.2189063 0.90627,-0.2189063 0.84498,0 1.27841,0.5253751 0.43343,0.5209968 0.43343,1.5367219 z"
                       style=""
                       id="path299" /><path
                       d="m 122.35948,-6.5365407 h 3.75643 v 0.7442812 h -2.87205 v 1.9263751 h 2.59185 v 0.7442812 h -2.59185 V 0 h -0.88438 z"
                       style=""
                       id="path301" /><path
                       d="m 129.47707,-4.3387219 q -0.64796,0 -1.02448,0.5078625 -0.37652,0.5034843 -0.37652,1.3834875 0,0.8800031 0.37214,1.3878656 0.37652,0.50348442 1.02886,0.50348442 0.64359,0 1.0201,-0.50786252 0.37652,-0.5078625 0.37652,-1.3834875 0,-0.8712469 -0.37652,-1.3791094 -0.37651,-0.5122406 -1.0201,-0.5122406 z m 0,-0.6829876 q 1.05075,0 1.65055,0.6829876 0.59981,0.6829875 0.59981,1.89135 0,1.2039844 -0.59981,1.89135002 -0.5998,0.68298751 -1.65055,0.68298751 -1.05513,0 -1.65493,-0.68298751 -0.59542,-0.68736562 -0.59542,-1.89135002 0,-1.2083625 0.59542,-1.89135 0.5998,-0.6829876 1.65493,-0.6829876 z"
                       style=""
                       id="path303" /><path
                       d="m 135.02621,-4.1504626 q -0.13572,-0.078806 -0.29771,-0.1138312 -0.15762,-0.039403 -0.35025,-0.039403 -0.68299,0 -1.05075,0.4465687 -0.36339,0.4421906 -0.36339,1.2740344 V 0 h -0.80995 v -4.9035001 h 0.80995 v 0.7617938 q 0.25393,-0.4465688 0.6611,-0.6610969 0.40717,-0.2189063 0.98946,-0.2189063 0.0832,0 0.18388,0.013134 0.10069,0.00876 0.22328,0.030647 z"
                       style=""
                       id="path305" /><path
                       d="m 139.60702,-3.9622032 q 0.30209,-0.5428875 0.72239,-0.8011969 0.4203,-0.2583094 0.98946,-0.2583094 0.76617,0 1.18209,0.5385094 0.41593,0.5341313 0.41593,1.5235876 V 0 h -0.80996 v -2.9333438 q 0,-0.7048781 -0.24955,-1.0463719 -0.24955,-0.3414937 -0.76179,-0.3414937 -0.62608,0 -0.98946,0.4159218 -0.36338,0.4159219 -0.36338,1.1339344 V 0 h -0.80996 v -2.9333438 q 0,-0.7092563 -0.24955,-1.0463719 -0.24955,-0.3414937 -0.77055,-0.3414937 -0.61732,0 -0.9807,0.4203 -0.36338,0.4159218 -0.36338,1.1295562 V 0 h -0.80996 v -4.9035001 h 0.80996 v 0.7617938 q 0.27582,-0.4509469 0.66109,-0.665475 0.38528,-0.2145282 0.91503,-0.2145282 0.53413,0 0.90627,0.2714438 0.37652,0.2714438 0.55602,0.7880625 z"
                       style=""
                       id="path307" /><path
                       d="m 145.69748,-2.4648844 q -0.97632,0 -1.35284,0.2232844 -0.37652,0.2232843 -0.37652,0.7617937 0,0.4290563 0.2802,0.68298754 0.28458,0.24955313 0.77055,0.24955313 0.66986,0 1.07264,-0.47283747 0.40717,-0.4772157 0.40717,-1.2652782 v -0.1795031 z m 1.60677,-0.3327375 V 0 h -0.80557 v -0.74428126 q -0.27582,0.44656876 -0.68737,0.66109688 -0.41154,0.21015001 -1.00697,0.21015001 -0.75303,0 -1.1996,-0.42030001 -0.44219,-0.42467813 -0.44219,-1.13393442 0,-0.8274656 0.55164,-1.2477656 0.55602,-0.4203 1.65493,-0.4203 h 1.12956 v -0.078806 q 0,-0.5560219 -0.36776,-0.8581125 -0.36339,-0.3064687 -1.02448,-0.3064687 -0.4203,0 -0.81871,0.1006968 -0.39841,0.1006969 -0.76618,0.3020907 v -0.7442813 q 0.44219,-0.1707469 0.85812,-0.2539313 0.41592,-0.087562 0.80995,-0.087562 1.06388,0 1.58926,0.5516438 0.52537,0.5516438 0.52537,1.6724438 z"
                       style=""
                       id="path309" /><path
                       d="m 148.87367,-6.2957439 v 1.3922438 h 1.65931 v 0.6260719 h -1.65931 v 2.6619 q 0,0.5998032 0.16199,0.77055006 0.16637,0.17074688 0.66985,0.17074688 h 0.82747 V 0 h -0.82747 q -0.93254,0 -1.28717,-0.34587188 -0.35462,-0.35025001 -0.35462,-1.26965632 v -2.6619 h -0.59105 v -0.6260719 h 0.59105 v -1.3922438 z"
                       style=""
                       id="path311" /><path
                       d="m 151.53376,-6.8036064 h 0.7005 q 0.65672,1.0332376 0.9807,2.0226938 0.32836,0.9894563 0.32836,1.9657782 0,0.9807 -0.32836,1.97453439 -0.32398,0.99383439 -0.9807,2.02269381 h -0.7005 q 0.58229,-1.00259067 0.86687,-1.99204694 0.28896,-0.99383436 0.28896,-2.00518126 0,-1.0113469 -0.28896,-1.9964251 -0.28458,-0.9850781 -0.86687,-1.9920469 z"
                       style=""
                       id="path313" /></g><g
                     id="g166"
                     transform="translate(239.448,27.765)" /></g></g><g
                 id="g168"
                 transform="translate(-171.942,2.491)" /></g></g></g></g></g></g></svg>